<?xml version="1.0" encoding="UTF-8"?>
<svg version="1.1" xmlns="http://www.w3.org/2000/svg" width="500" height="500">
<path d="M0 0 C0 1.32 0 2.64 0 4 C-5.13685279 5.76064443 -10.27399218 7.52044946 -15.41137695 9.27954102 C-17.15201216 9.87567531 -18.89257444 10.47202262 -20.63305664 11.06860352 C-23.16272223 11.93564658 -25.6926456 12.80193313 -28.22265625 13.66796875 C-29.05896576 13.95457367 -29.89527527 14.24117859 -30.75692749 14.53646851 C-34.53455259 15.82821726 -38.3143017 17.10998414 -42.10986328 18.34814453 C-50.47072658 21.07961209 -58.62286933 24.13802358 -66.75 27.5 C-67.87792969 27.96019531 -69.00585938 28.42039063 -70.16796875 28.89453125 C-76.28388593 31.40453194 -82.33204314 34.0243242 -88.33837891 36.78564453 C-92.80023961 38.82135313 -97.30525229 40.75488174 -101.8125 42.6875 C-102.71419922 43.07744141 -103.61589844 43.46738281 -104.54492188 43.86914062 C-108.98175091 45.77342895 -113.38079931 47.57224706 -118 49 C-118.07734375 49.95132813 -118.07734375 49.95132813 -118.15625 50.921875 C-120.02391024 66.28762515 -127.35965819 80.73078641 -135 94 C-135.70909545 95.27228924 -136.41601893 96.54579073 -137.12109375 97.8203125 C-141.2646231 105.28862791 -145.53475982 112.6677678 -149.99365234 119.95263672 C-152.18659251 123.55438704 -154.1652172 127.20349974 -156 131 C-156.66 131 -157.32 131 -158 131 C-158.10779785 131.56428711 -158.2155957 132.12857422 -158.32666016 132.70996094 C-159.10913965 135.3711856 -160.27820581 137.30423713 -161.7734375 139.640625 C-162.34553955 140.53861816 -162.9176416 141.43661133 -163.50708008 142.36181641 C-164.12349365 143.31491699 -164.73990723 144.26801758 -165.375 145.25 C-166.00623779 146.23274902 -166.63747559 147.21549805 -167.2878418 148.22802734 C-174.82838391 159.91420251 -182.60628784 171.38640389 -191.0703125 182.42578125 C-192.73817172 184.65071896 -194.24792708 186.91292381 -195.75 189.25 C-198 192 -198 192 -200.8125 192.4375 C-201.534375 192.293125 -202.25625 192.14875 -203 192 C-202.44205114 185.0654927 -199.95900082 178.96441657 -197.5 172.5 C-196.82940552 170.71118408 -196.82940552 170.71118408 -196.14526367 168.88623047 C-192.92065867 160.32028663 -189.56679186 151.80813414 -186.19213867 143.30053711 C-183.35976721 136.08897563 -180.85445333 128.79966219 -178.45678711 121.43359375 C-176.5059251 115.45163416 -174.38344965 109.56204863 -172.13256836 103.68725586 C-170.42388638 99.20332972 -168.86467639 94.68609107 -167.375 90.125 C-165.47115464 84.31488292 -163.37298418 78.63418031 -161 73 C-164.77316936 73.65552246 -167.44588891 75.36969565 -170.6484375 77.421875 C-171.73640625 78.11796875 -172.824375 78.8140625 -173.9453125 79.53125 C-174.79077637 80.07845703 -174.79077637 80.07845703 -175.65332031 80.63671875 C-177.35807483 81.73905576 -179.06909998 82.83106975 -180.78125 83.921875 C-187.43984226 88.17111041 -187.43984226 88.17111041 -193.6640625 93.015625 C-196 95 -196 95 -198 95 C-198 95.66 -198 96.32 -198 97 C-200.375 99.625 -200.375 99.625 -203 102 C-203.66 102 -204.32 102 -205 102 C-205 102.66 -205 103.32 -205 104 C-205.66 104 -206.32 104 -207 104 C-207.226875 104.70125 -207.45375 105.4025 -207.6875 106.125 C-209.40445133 109.885941 -210.98700384 112.12395821 -214 115 C-217.3125 114.875 -217.3125 114.875 -220 114 C-220 113.34 -220 112.68 -220 112 C-220.66 112 -221.32 112 -222 112 C-222 111.34 -222 110.68 -222 110 C-222.66 110 -223.32 110 -224 110 C-225.69140625 107.515625 -225.69140625 107.515625 -227.5625 104.25 C-228.18253906 103.18265625 -228.80257812 102.1153125 -229.44140625 101.015625 C-233.48843038 93.1852926 -233.18493371 82.46124579 -231.0625 74 C-226.98103716 62.55664626 -219.55856468 51.51708315 -210 44 C-207.203125 42.73828125 -207.203125 42.73828125 -205 42 C-205 41.34 -205 40.68 -205 40 C-203.50976563 38.79833984 -203.50976563 38.79833984 -201.40625 37.4609375 C-200.63112061 36.96674316 -199.85599121 36.47254883 -199.05737305 35.96337891 C-198.21343994 35.43921387 -197.36950684 34.91504883 -196.5 34.375 C-195.20799683 33.56748291 -195.20799683 33.56748291 -193.88989258 32.74365234 C-186.15712101 27.97768485 -178.25238692 23.78542115 -170 20 C-169.34531738 19.69803711 -168.69063477 19.39607422 -168.01611328 19.08496094 C-156.88899002 14 -156.88899002 14 -152 14 C-152 15.65 -152 17.3 -152 19 C-152.66 19 -153.32 19 -154 19 C-154 19.66 -154 20.32 -154 21 C-154.66 21 -155.32 21 -156 21 C-156 21.66 -156 22.32 -156 23 C-156.66 23 -157.32 23 -158 23 C-158 23.66 -158 24.32 -158 25 C-159.6796875 26.65625 -159.6796875 26.65625 -161.875 28.5 C-163.99035504 30.28933258 -166.04019124 32.04019124 -168 34 C-164.46598773 33.43215304 -161.31289346 32.41175123 -157.9934082 31.08422852 C-147.24773648 26.78949235 -136.20269113 23.8415491 -125 21 C-123.85708496 20.70947754 -122.71416992 20.41895508 -121.53662109 20.11962891 C-100.02198269 14.69379445 -78.64970306 10.45945652 -56.63671875 7.72265625 C-50.34604664 6.93374498 -44.08211747 5.98903074 -37.81982422 5.00170898 C-32.96143104 4.24789224 -28.11762987 3.68775262 -23.21850586 3.26806641 C-20.03671808 2.88360476 -17.06756328 1.90890764 -14 1 C-9.34121354 0.17947009 -4.7293183 -0.11823296 0 0 Z " fill="#D82224" transform="translate(421,210)"/>
<path d="M0 0 C-1.3066147 16.07136076 -9.06887664 31.22577727 -17 45 C-17.70909545 46.27228924 -18.41601893 47.54579073 -19.12109375 48.8203125 C-23.2646231 56.28862791 -27.53475982 63.6677678 -31.99365234 70.95263672 C-34.18659251 74.55438704 -36.1652172 78.20349974 -38 82 C-38.66 82 -39.32 82 -40 82 C-40.10779785 82.56428711 -40.2155957 83.12857422 -40.32666016 83.70996094 C-41.10913965 86.3711856 -42.27820581 88.30423713 -43.7734375 90.640625 C-44.34553955 91.53861816 -44.9176416 92.43661133 -45.50708008 93.36181641 C-46.12349365 94.31491699 -46.73990723 95.26801758 -47.375 96.25 C-48.00623779 97.23274902 -48.63747559 98.21549805 -49.2878418 99.22802734 C-56.82838391 110.91420251 -64.60628784 122.38640389 -73.0703125 133.42578125 C-74.73817172 135.65071896 -76.24792708 137.91292381 -77.75 140.25 C-80 143 -80 143 -82.8125 143.4375 C-83.534375 143.293125 -84.25625 143.14875 -85 143 C-84.44205114 136.0654927 -81.95900082 129.96441657 -79.5 123.5 C-79.05293701 122.30745605 -78.60587402 121.11491211 -78.14526367 119.88623047 C-74.92065867 111.32028663 -71.56679186 102.80813414 -68.19213867 94.30053711 C-65.35976721 87.08897563 -62.85445333 79.79966219 -60.45678711 72.43359375 C-58.5059251 66.45163416 -56.38344965 60.56204863 -54.13256836 54.68725586 C-52.42388638 50.20332972 -50.86467639 45.68609107 -49.375 41.125 C-47.47115464 35.31488292 -45.37298418 29.63418031 -43 24 C-46.77316936 24.65552246 -49.44588891 26.36969565 -52.6484375 28.421875 C-54.28039062 29.46601563 -54.28039062 29.46601563 -55.9453125 30.53125 C-56.50895508 30.89605469 -57.07259766 31.26085937 -57.65332031 31.63671875 C-59.35807483 32.73905576 -61.06909998 33.83106975 -62.78125 34.921875 C-69.43984226 39.17111041 -69.43984226 39.17111041 -75.6640625 44.015625 C-78 46 -78 46 -80 46 C-80 46.66 -80 47.32 -80 48 C-82.375 50.625 -82.375 50.625 -85 53 C-85.66 53 -86.32 53 -87 53 C-87 53.66 -87 54.32 -87 55 C-87.66 55 -88.32 55 -89 55 C-89.226875 55.70125 -89.45375 56.4025 -89.6875 57.125 C-91.40445133 60.885941 -92.98700384 63.12395821 -96 66 C-99.3125 65.875 -99.3125 65.875 -102 65 C-102 64.34 -102 63.68 -102 63 C-102.66 63 -103.32 63 -104 63 C-104 62.34 -104 61.68 -104 61 C-104.66 61 -105.32 61 -106 61 C-107.69140625 58.515625 -107.69140625 58.515625 -109.5625 55.25 C-110.18253906 54.18265625 -110.80257812 53.1153125 -111.44140625 52.015625 C-114.02821231 47.01057669 -114.13619936 43.21257639 -114.125 37.5625 C-114.12757813 36.26441406 -114.13015625 34.96632813 -114.1328125 33.62890625 C-114.02191827 30.59888459 -113.71254666 27.93501362 -113 25 C-112.67 25 -112.34 25 -112 25 C-111.9227582 29.55726628 -112.00703588 33.53557076 -113 38 C-111.0412957 37.85923685 -109.08303907 37.7122324 -107.125 37.5625 C-106.03445312 37.48128906 -104.94390625 37.40007812 -103.8203125 37.31640625 C-101.05271029 37.16998297 -101.05271029 37.16998297 -99 36 C-97.08591243 35.75020555 -95.16848389 35.52591986 -93.25 35.3125 C-79.58993191 33.43952159 -66.09947133 29.33011705 -53.14453125 24.6640625 C-51 24 -51 24 -48 24 C-48 23.34 -48 22.68 -48 22 C-46.84576538 21.58258545 -46.84576538 21.58258545 -45.66821289 21.15673828 C-37.6040491 18.15828337 -29.94298218 14.69244618 -22.27612305 10.80615234 C-20.41119761 9.86167942 -18.5409822 8.92834476 -16.66992188 7.99609375 C-10.50986879 5.02766443 -10.50986879 5.02766443 -4.80883789 1.30126953 C-3 0 -3 0 0 0 Z " fill="#F7B133" transform="translate(303,259)"/>
<path d="M0 0 C0 1.32 0 2.64 0 4 C-5.13685279 5.76064443 -10.27399218 7.52044946 -15.41137695 9.27954102 C-17.15201216 9.87567531 -18.89257444 10.47202262 -20.63305664 11.06860352 C-23.16272223 11.93564658 -25.69264696 12.80192917 -28.22265625 13.66796875 C-29.4774604 14.09801208 -29.4774604 14.09801208 -30.75761414 14.53674316 C-34.53127789 15.8271842 -38.30703324 17.10763979 -42.09887695 18.34375 C-50.57039239 21.10995912 -58.82745654 24.22062088 -67.0625 27.625 C-68.23232422 28.10195312 -69.40214844 28.57890625 -70.60742188 29.0703125 C-76.99170647 31.68567853 -76.99170647 31.68567853 -83.22900391 34.62792969 C-85.79522368 35.89860415 -87.49888233 36.41739326 -90.3125 36.625 C-93.79767541 36.5870293 -93.79767541 36.5870293 -95 38 C-97.12944827 38.28784474 -99.26702737 38.51594207 -101.40625 38.71875 C-102.70691406 38.84636719 -104.00757813 38.97398437 -105.34765625 39.10546875 C-107.42812733 39.30391368 -109.5087402 39.50082724 -111.58935547 39.69775391 C-113.59116279 39.88869553 -115.59246689 40.08489021 -117.59375 40.28125 C-118.79708984 40.39533203 -120.00042969 40.50941406 -121.24023438 40.62695312 C-123.90537854 40.7033741 -123.90537854 40.7033741 -125 42 C-126.59253612 42.0998987 -128.18949117 42.13080915 -129.78515625 42.1328125 C-130.78377686 42.13498779 -131.78239746 42.13716309 -132.8112793 42.1394043 C-133.88418213 42.13465088 -134.95708496 42.12989746 -136.0625 42.125 C-137.14764893 42.12089111 -138.23279785 42.11678223 -139.35083008 42.11254883 C-145.63314342 42.0692931 -151.91198915 41.99487814 -158.1875 41.6875 C-159.39792969 41.62949219 -160.60835938 41.57148438 -161.85546875 41.51171875 C-165.26311278 40.95718289 -167.29875869 40.14166213 -170 38 C-170 37.01 -170 36.02 -170 35 C-169.44675049 34.81969238 -168.89350098 34.63938477 -168.32348633 34.45361328 C-164.5236496 33.20297294 -160.74658827 31.9263026 -157.01171875 30.4921875 C-125.13437685 18.4330171 -90.0518473 11.67147191 -56.3203125 7.65234375 C-50.13013249 6.91465979 -43.97494447 5.97236041 -37.81762695 5.0012207 C-32.95994 4.24782823 -28.11687537 3.68768799 -23.21850586 3.26806641 C-20.03671808 2.88360476 -17.06756328 1.90890764 -14 1 C-9.34121354 0.17947009 -4.7293183 -0.11823296 0 0 Z " fill="#203F94" transform="translate(421,210)"/>
<path d="M0 0 C0.97171958 2.55222733 1.13645781 3.66063535 0.1015625 6.234375 C-0.38570313 7.06453125 -0.87296875 7.8946875 -1.375 8.75 C-1.931875 9.71679688 -2.48875 10.68359375 -3.0625 11.6796875 C-4.0215625 13.32324219 -4.0215625 13.32324219 -5 15 C-5.71145653 16.27169524 -6.41965524 17.54521723 -7.125 18.8203125 C-11.37412482 26.48866949 -15.78289578 34.01580939 -20.46875 41.42578125 C-22.1115809 43.97938073 -22.1115809 43.97938073 -23 47 C-23.66 47 -24.32 47 -25 47 C-25.10779785 47.56428711 -25.2155957 48.12857422 -25.32666016 48.70996094 C-26.10913965 51.3711856 -27.27820581 53.30423713 -28.7734375 55.640625 C-29.34553955 56.53861816 -29.9176416 57.43661133 -30.50708008 58.36181641 C-31.12349365 59.31491699 -31.73990723 60.26801758 -32.375 61.25 C-33.00623779 62.23274902 -33.63747559 63.21549805 -34.2878418 64.22802734 C-41.82838391 75.91420251 -49.60628784 87.38640389 -58.0703125 98.42578125 C-59.73817172 100.65071896 -61.24792708 102.91292381 -62.75 105.25 C-65 108 -65 108 -67.8125 108.4375 C-68.534375 108.293125 -69.25625 108.14875 -70 108 C-69.44205507 101.06554164 -66.95916274 94.96433314 -64.5 88.5 C-64.0551123 87.31398193 -63.61022461 86.12796387 -63.15185547 84.90600586 C-59.84982297 76.13860077 -56.43895233 67.41508554 -52.99438477 58.70288086 C-50.43461617 52.20098735 -48.05484311 45.68183248 -46 39 C-45.01 39 -44.02 39 -43 39 C-42.95875 37.9275 -42.9175 36.855 -42.875 35.75 C-42 32 -42 32 -39.0625 29.5625 C-36 28 -36 28 -34 28 C-34 27.34 -34 26.68 -34 26 C-32.0859375 24.66015625 -32.0859375 24.66015625 -29.375 23.0625 C-18.76444193 16.49926821 -9.15459703 8.45226022 0 0 Z " fill="#100E0E" transform="translate(288,294)"/>
<path d="M0 0 C0 1.65 0 3.3 0 5 C-1.32 5.66 -2.64 6.32 -4 7 C-4 5.35 -4 3.7 -4 2 C-11.35601064 6.09628828 -18.43280499 10.52150377 -25.4375 15.1875 C-26.20626465 15.69829102 -26.9750293 16.20908203 -27.76708984 16.73535156 C-30.9211579 18.85096085 -33.95924301 20.96690204 -36.91015625 23.36328125 C-39 25 -39 25 -41 25 C-41 25.66 -41 26.32 -41 27 C-43.375 29.625 -43.375 29.625 -46 32 C-46.66 32 -47.32 32 -48 32 C-48 32.66 -48 33.32 -48 34 C-48.66 34 -49.32 34 -50 34 C-50.226875 34.70125 -50.45375 35.4025 -50.6875 36.125 C-52.40445133 39.885941 -53.98700384 42.12395821 -57 45 C-60.3125 44.875 -60.3125 44.875 -63 44 C-63 43.34 -63 42.68 -63 42 C-63.66 42 -64.32 42 -65 42 C-65 41.34 -65 40.68 -65 40 C-65.66 40 -66.32 40 -67 40 C-68.69140625 37.515625 -68.69140625 37.515625 -70.5625 34.25 C-71.18253906 33.18265625 -71.80257812 32.1153125 -72.44140625 31.015625 C-75.02821231 26.01057669 -75.13619936 22.21257639 -75.125 16.5625 C-75.12757813 15.26441406 -75.13015625 13.96632813 -75.1328125 12.62890625 C-75.02191827 9.59888459 -74.71254666 6.93501362 -74 4 C-73.67 4 -73.34 4 -73 4 C-72.9227582 8.55726628 -73.00703588 12.53557076 -74 17 C-72.0412957 16.85923685 -70.08303907 16.7122324 -68.125 16.5625 C-67.03445312 16.48128906 -65.94390625 16.40007812 -64.8203125 16.31640625 C-62.05271029 16.16998297 -62.05271029 16.16998297 -60 15 C-58.08591243 14.75020555 -56.16848389 14.52591986 -54.25 14.3125 C-40.58993191 12.43952159 -27.09947133 8.33011705 -14.14453125 3.6640625 C-12 3 -12 3 -9 3 C-9 2.34 -9 1.68 -9 1 C-5.92677456 0.08941469 -3.19902639 -0.08886184 0 0 Z " fill="#F8B032" transform="translate(264,280)"/>
<path d="M0 0 C5.57670126 3.17106542 9.00185079 5.88066805 11 12 C11.265625 15.59375 11.265625 15.59375 11.25 19.5 C11.25515625 20.7890625 11.2603125 22.078125 11.265625 23.40625 C11.01830367 26.7523621 10.4505069 29.00689053 9 32 C8.34 32 7.68 32 7 32 C6.7525 32.61875 6.505 33.2375 6.25 33.875 C4.71177504 36.48998244 3.87649576 37.06708246 1 38 C-4.20663198 38.48209555 -7.58245104 37.83985291 -12 35 C-12.495 33.515 -12.495 33.515 -13 32 C-13.66 32 -14.32 32 -15 32 C-17.53565488 28.1559472 -17.36732011 24.13031643 -17.375 19.6875 C-17.39949219 18.95337891 -17.42398438 18.21925781 -17.44921875 17.46289062 C-17.47911221 11.84790251 -16.23801366 8.60260513 -13 4 C-9.27580132 0.60740805 -4.98438027 -0.84840515 0 0 Z " fill="#29A354" transform="translate(197,220)"/>
<path d="M0 0 C0 1.32 0 2.64 0 4 C-3.26556587 5.20235238 -6.53815915 6.38427591 -9.8125 7.5625 C-10.74126953 7.90474609 -11.67003906 8.24699219 -12.62695312 8.59960938 C-13.9659668 9.07817383 -13.9659668 9.07817383 -15.33203125 9.56640625 C-16.15421143 9.86490479 -16.9763916 10.16340332 -17.82348633 10.47094727 C-20 11 -20 11 -23 10 C-22.34 10 -21.68 10 -21 10 C-21.495 9.01 -21.495 9.01 -22 8 C-28.11485027 7.90293888 -33.93303301 8.22959149 -40 9 C-40 9.66 -40 10.32 -40 11 C-45.20739688 12.69543154 -50.35979368 13.5808262 -55.7734375 14.37109375 C-60.11614894 15.00669119 -64.44679717 15.71266905 -68.77905273 16.41552734 C-78.11372336 17.92826333 -87.45326596 19.39680799 -96.8125 20.75 C-97.68326172 20.87753662 -98.55402344 21.00507324 -99.45117188 21.13647461 C-100.25748047 21.25128174 -101.06378906 21.36608887 -101.89453125 21.484375 C-102.59425049 21.58459961 -103.29396973 21.68482422 -104.01489258 21.78808594 C-106 22 -106 22 -110 22 C-110.33 22.66 -110.66 23.32 -111 24 C-117.54015458 25.23795783 -124.36727857 25.10873314 -131 25 C-130.67 25.99 -130.34 26.98 -130 28 C-131.32 28.33 -132.64 28.66 -134 29 C-134 28.34 -134 27.68 -134 27 C-136.97 27 -139.94 27 -143 27 C-140.35639353 24.35639353 -137.54292013 23.91646869 -134.01953125 23.046875 C-133.30747528 22.86607391 -132.59541931 22.68527283 -131.86178589 22.49899292 C-129.51417278 21.90698559 -127.1637538 21.32736794 -124.8125 20.75 C-124.00745026 20.550578 -123.20240051 20.35115601 -122.37295532 20.14569092 C-100.56197224 14.75753659 -78.64535084 10.31238252 -56.3203125 7.65234375 C-50.13013249 6.91465979 -43.97494447 5.97236041 -37.81762695 5.0012207 C-32.95994 4.24782823 -28.11687537 3.68768799 -23.21850586 3.26806641 C-20.03671808 2.88360476 -17.06756328 1.90890764 -14 1 C-9.34121354 0.17947009 -4.7293183 -0.11823296 0 0 Z " fill="#566DA8" transform="translate(421,210)"/>
<path d="M0 0 C0.33970765 2.49927769 0.67188032 4.99919595 1 7.5 C1.09539062 8.19609375 1.19078125 8.8921875 1.2890625 9.609375 C1.9161622 14.44700129 2.08789528 19.12181196 2 24 C-1.11099161 25.84355058 -3.39129525 26.63152333 -7 26 C-9.3125 23.5 -9.3125 23.5 -11 21 C-11 23.31 -11 25.62 -11 28 C-16.625 31 -16.625 31 -20 31 C-21.45800781 29.28759766 -21.45800781 29.28759766 -22.953125 26.9140625 C-23.489375 26.06585938 -24.025625 25.21765625 -24.578125 24.34375 C-25.12984375 23.4465625 -25.6815625 22.549375 -26.25 21.625 C-26.8171875 20.73554688 -27.384375 19.84609375 -27.96875 18.9296875 C-31.04503515 14.00165789 -31.04503515 14.00165789 -32 12 C-30.71567636 9.43135272 -29.63365249 9.053461 -27 8 C-25.68 8 -24.36 8 -23 8 C-21.25 10 -21.25 10 -20 12 C-20 10.02 -20 8.04 -20 6 C-15.64722617 3.94452347 -15.64722617 3.94452347 -12.8125 4.1875 C-11 5 -11 5 -9 8 C-9 6.02 -9 4.04 -9 2 C-5.62902617 0.50178941 -3.79557881 0 0 0 Z " fill="#1A1819" transform="translate(172,142)"/>
<path d="M0 0 C3.3 0.33 6.6 0.66 10 1 C10.33 3.64 10.66 6.28 11 9 C11.99 6.69 12.98 4.38 14 2 C20.75 1.875 20.75 1.875 23 3 C23.48383718 5.56254506 23.84382435 8.03910589 24.125 10.625 C24.21136719 11.32496094 24.29773438 12.02492188 24.38671875 12.74609375 C24.90648971 17.19302305 25.08223526 21.52405229 25 26 C22.39855749 26.96349722 21.05329335 27.0123938 18.3125 26.375 C16 25 16 25 15.1875 22.375 C15.125625 21.59125 15.06375 20.8075 15 20 C14.01 21.65 13.02 23.3 12 25 C9.36 24.67 6.72 24.34 4 24 C3.67 21.69 3.34 19.38 3 17 C2.34 18.98 1.68 20.96 1 23 C-1.64 23 -4.28 23 -7 23 C-6.42389687 17.45044957 -4.97901452 12.73970503 -2.9375 7.5625 C-2.65583984 6.83095703 -2.37417969 6.09941406 -2.08398438 5.34570312 C-1.39586753 3.56126454 -0.69885394 1.78026095 0 0 Z " fill="#1A191A" transform="translate(172,374)"/>
<path d="M0 0 C0 1.65 0 3.3 0 5 C-0.66 5 -1.32 5 -2 5 C-2 5.66 -2 6.32 -2 7 C-2.66 7 -3.32 7 -4 7 C-4 7.66 -4 8.32 -4 9 C-4.66 9 -5.32 9 -6 9 C-6 9.66 -6 10.32 -6 11 C-7.64453125 12.62109375 -7.64453125 12.62109375 -9.8125 14.4375 C-13.57841744 17.53962424 -13.57841744 17.53962424 -17 21 C-17.00478037 23.1477633 -17.00478037 23.1477633 -16 25 C-6.30018933 28.23327022 5.81645528 27.10016954 15.9375 27.125 C17.0102417 27.12959229 18.0829834 27.13418457 19.18823242 27.13891602 C20.18701416 27.13690186 21.1857959 27.1348877 22.21484375 27.1328125 C23.11323975 27.13168457 24.01163574 27.13055664 24.93725586 27.12939453 C26.99166534 27.22881811 26.99166534 27.22881811 28 26 C30.12944827 25.71215526 32.26702737 25.48405793 34.40625 25.28125 C35.70691406 25.15363281 37.00757813 25.02601563 38.34765625 24.89453125 C40.42812733 24.69608632 42.5087402 24.49917276 44.58935547 24.30224609 C46.59116279 24.11130447 48.59246689 23.91510979 50.59375 23.71875 C51.79708984 23.60466797 53.00042969 23.49058594 54.24023438 23.37304688 C56.90537854 23.2966259 56.90537854 23.2966259 58 22 C59.66617115 21.95936168 61.33388095 21.957279 63 22 C60.83939686 24.16060314 59.21518284 24.90450921 56.421875 26.09375 C55.50792969 26.48433594 54.59398437 26.87492187 53.65234375 27.27734375 C52.69457031 27.68082031 51.73679687 28.08429688 50.75 28.5 C49.80769531 28.90347656 48.86539063 29.30695313 47.89453125 29.72265625 C43.31264052 31.66979915 38.76254432 33.52968431 34 35 C34.33 33.35 34.66 31.7 35 30 C33.49167603 30.24447876 33.49167603 30.24447876 31.95288086 30.49389648 C28.1619715 30.97926213 24.57246647 31.11404492 20.75390625 31.09765625 C20.09792953 31.0962413 19.44195282 31.09482635 18.76609802 31.09336853 C16.69818298 31.08783031 14.63038158 31.07529002 12.5625 31.0625 C11.14909012 31.05747699 9.73567852 31.0529155 8.32226562 31.04882812 C4.88147432 31.03788126 1.44074828 31.02066038 -2 31 C-2 30.34 -2 29.68 -2 29 C-3.28777344 28.93941406 -4.57554687 28.87882812 -5.90234375 28.81640625 C-7.58074159 28.73201753 -9.25912636 28.6473687 -10.9375 28.5625 C-11.78763672 28.52318359 -12.63777344 28.48386719 -13.51367188 28.44335938 C-14.32255859 28.40146484 -15.13144531 28.35957031 -15.96484375 28.31640625 C-17.08814087 28.26141968 -17.08814087 28.26141968 -18.23413086 28.20532227 C-20 28 -20 28 -21 27 C-20.91062197 25.47480724 -20.75462854 23.95318071 -20.5625 22.4375 C-20.46066406 21.61121094 -20.35882813 20.78492188 -20.25390625 19.93359375 C-20.17011719 19.29550781 -20.08632812 18.65742188 -20 18 C-19.01 18 -18.02 18 -17 18 C-17 16.68 -17 15.36 -17 14 C-20.21717892 12.92760703 -21.05283612 13.06390515 -24.1875 13.9375 C-25.445625 14.288125 -26.70375 14.63875 -28 15 C-28.33 16.32 -28.66 17.64 -29 19 C-32.63 19 -36.26 19 -40 19 C-36.86862369 15.51296119 -33.42688753 13.32954594 -29.3125 11.1875 C-28.66692139 10.84783203 -28.02134277 10.50816406 -27.35620117 10.15820312 C-22.27259041 7.53957577 -17.08807236 5.2037201 -11.8125 3 C-11.09425049 2.69731201 -10.37600098 2.39462402 -9.63598633 2.08276367 C-6.15782738 0.67256515 -3.80782989 0 0 0 Z M-15 12 C-15.66 12.66 -16.32 13.32 -17 14 C-16.01 14 -15.02 14 -14 14 C-14.33 13.34 -14.66 12.68 -15 12 Z " fill="#B53248" transform="translate(269,224)"/>
<path d="M0 0 C3.25 0.125 3.25 0.125 7 1 C9.62549075 4.10913379 11.37662098 6.94803638 12 11 C12.99 8.69 13.98 6.38 15 4 C16.99954746 3.95745644 19.00041636 3.95919217 21 4 C22 5 22 5 22.1875 8.06640625 C21.98571392 12.29971005 21.17471091 15.89347832 20 19.9375 C19.80921875 20.62134766 19.6184375 21.30519531 19.421875 22.00976562 C18.95595063 23.67544526 18.47911589 25.33806675 18 27 C15.49974445 27.71511546 14.10872769 28.01902735 11.5 27.5625 C7.80184523 25.25115327 6.63880085 21.93678417 5 18 C4.67 18 4.34 18 4 18 C3.67 19.98 3.34 21.96 3 24 C-3.15234375 23.4140625 -3.15234375 23.4140625 -5 23 C-6.29813841 20.40372319 -5.78545428 19.48726893 -5.0390625 16.71875 C-4.70261719 15.45611328 -4.70261719 15.45611328 -4.359375 14.16796875 C-3.99585938 12.84732422 -3.99585938 12.84732422 -3.625 11.5 C-3.39039063 10.61957031 -3.15578125 9.73914063 -2.9140625 8.83203125 C-1.15762562 2.31525125 -1.15762562 2.31525125 0 0 Z " fill="#1D1B1E" transform="translate(220,141)"/>
<path d="M0 0 C0.99 0 1.98 0 3 0 C3 3.63 3 7.26 3 11 C3.85464844 11.32613281 4.70929688 11.65226563 5.58984375 11.98828125 C6.69457031 12.42527344 7.79929688 12.86226562 8.9375 13.3125 C10.03964844 13.74175781 11.14179688 14.17101562 12.27734375 14.61328125 C15 16 15 16 16 19 C13.9375 21.0625 13.9375 21.0625 11 23 C7.3595767 22.81170224 4.44767107 22.14922369 1 21 C1.144375 21.5775 1.28875 22.155 1.4375 22.75 C1.95833333 24.83333333 2.47916667 26.91666667 3 29 C1.35 30.32 -0.3 31.64 -2 33 C-6.1589169 31.47379196 -8.24149447 28.46451578 -10.75 25 C-11.36681641 24.18015625 -11.36681641 24.18015625 -11.99609375 23.34375 C-15 19.27200997 -15 19.27200997 -15 17 C-15.66 17 -16.32 17 -17 17 C-16.6875 14.625 -16.6875 14.625 -16 12 C-13 10 -13 10 -10.9375 10.1875 C-9 11 -9 11 -7 14 C-6.97421875 13.38511719 -6.9484375 12.77023438 -6.921875 12.13671875 C-6.45504587 5.48440367 -6.45504587 5.48440367 -4.0625 2.9375 C-2 2 -2 2 0 2 C0 1.34 0 0.68 0 0 Z " fill="#2A282A" transform="translate(129,159)"/>
<path d="M0 0 C2.91517292 1.07401108 4.77810176 1.77810176 7 4 C7.125 7.4375 7.125 7.4375 7 11 C7 11.99 7 12.98 7 14 C8.32 12.35 9.64 10.7 11 9 C13.86697492 10.28519565 15.97607712 11.57129254 18 14 C18 14.66 18 15.32 18 16 C17.34 16 16.68 16 16 16 C15.76925781 16.54011719 15.53851563 17.08023437 15.30078125 17.63671875 C13.60558734 20.71657555 11.50042149 23.16668427 9.1875 25.8125 C8.33542969 26.80894531 7.48335937 27.80539062 6.60546875 28.83203125 C4 31 4 31 1.47265625 31.046875 C-3.66172915 28.87307518 -8.61920195 25.01566295 -10.9765625 19.8671875 C-11.375 17.8125 -11.375 17.8125 -11 14 C-8.8125 11 -8.8125 11 -6 9 C-4.68 9 -3.36 9 -2 9 C-1.34 6.03 -0.68 3.06 0 0 Z M-3 17 C-2.34 18.32 -1.68 19.64 -1 21 C-0.01 20.67 0.98 20.34 2 20 C0.62514468 18.45833358 0.62514468 18.45833358 -1 17 C-1.66 17 -2.32 17 -3 17 Z " fill="#2A292B" transform="translate(118,342)"/>
<path d="M0 0 C3.0511547 2.68131777 4.73097429 4.84156146 5.41796875 8.92578125 C5.67387363 13.04100838 5.45110924 15.93437675 2.875 19.25 C-1.40183949 23.14667598 -4.15580157 24.02911014 -9.875 23.875 C-13.68547499 23.37946738 -15.8629952 22.57612606 -18.5625 19.8125 C-21.15079274 16.24901481 -21.65336764 13.23704938 -21.328125 8.890625 C-20.56646213 4.83857855 -18.91964119 2.67559378 -15.875 0 C-10.64476634 -2.11434978 -5.23023366 -2.11434978 0 0 Z M-9.9375 5.8125 C-12.26233785 7.69625675 -12.26233785 7.69625675 -12.125 10.8125 C-12.13829609 13.73636603 -12.13829609 13.73636603 -10.9375 15.8125 C-8.93795254 15.85504356 -6.93708364 15.85330783 -4.9375 15.8125 C-3.54462194 14.64213695 -3.54462194 14.64213695 -3.75 11.375 C-3.54185072 7.76217279 -3.54185072 7.76217279 -5.9375 5.8125 C-7.2575 5.8125 -8.5775 5.8125 -9.9375 5.8125 Z " fill="#252326" transform="translate(202.9375,140.1875)"/>
<path d="M0 0 C2.2109885 0.42793326 3.98119242 0.99059621 6 2 C5.67 3.32 5.34 4.64 5 6 C5.61875 6.144375 6.2375 6.28875 6.875 6.4375 C9 7 9 7 11 8 C10.125 12.75 10.125 12.75 9 15 C10.32 13.35 11.64 11.7 13 10 C15.475 10.495 15.475 10.495 18 11 C18.76171875 12.62109375 18.76171875 12.62109375 19 15 C17.26953125 17.91015625 17.26953125 17.91015625 14.8125 21.0625 C14.01457031 22.10535156 13.21664062 23.14820313 12.39453125 24.22265625 C10.36929395 26.57166721 8.5655731 28.2955158 6 30 C5.35933594 29.48050781 4.71867187 28.96101563 4.05859375 28.42578125 C-0.86300442 24.45769688 -5.81011471 20.61035498 -11 17 C-9.56407335 12.88016856 -7.53749031 9.74182002 -4.9375 6.25 C-4.22464844 5.28578125 -3.51179688 4.3215625 -2.77734375 3.328125 C-1 1 -1 1 0 0 Z M4 6 C4 9 4 9 4 9 Z M2 9 C0.515 10.98 0.515 10.98 -1 13 C0.32 12.34 1.64 11.68 3 11 C2.67 10.34 2.34 9.68 2 9 Z " fill="#252326" transform="translate(101,184)"/>
<path d="M0 0 C6.00270094 1.38523868 10.58899561 4.81836784 15 9 C16.66234913 11.67199677 17.01407811 12.67620349 16.875 15.875 C15.5535263 20.59454894 13.44231879 23.79157075 9.6875 26.9375 C5.92231731 28.4260606 3.91576441 28.04420384 0 27 C-4.56060254 24.91814859 -8.18222217 23.22666675 -11 19 C-9.54312342 16.39500876 -8.08456349 13.79098518 -6.625 11.1875 C-6.2125 10.44951172 -5.8 9.71152344 -5.375 8.95117188 C-4.77558594 7.88286133 -4.77558594 7.88286133 -4.1640625 6.79296875 C-3.79748535 6.1383667 -3.4309082 5.48376465 -3.05322266 4.80932617 C-2.09793201 3.16823694 -1.0533104 1.5799656 0 0 Z M4 10 C3.34 11.11375 2.68 12.2275 2 13.375 C1.62875 14.00148437 1.2575 14.62796875 0.875 15.2734375 C-0.15068348 16.97472667 -0.15068348 16.97472667 0 19 C1.32 19.33 2.64 19.66 4 20 C7.12130073 16.86148608 7.12130073 16.86148608 7.9375 12.75 C7.06502056 10.64005363 7.06502056 10.64005363 4 10 Z " fill="#2A282A" transform="translate(255,152)"/>
<path d="M0 0 C4.03380644 1.29386244 6.16545861 2.81942957 8.4375 6.3125 C9.72180195 8.87573025 10 10.04576012 10 13 C8.33960732 17.98117805 6.4864321 22.00904527 2 25 C-5.17848612 25.71784861 -9.00246645 24.19429083 -14.671875 19.6640625 C-16.92772509 16.83761504 -16.46107252 13.99485872 -16.359375 10.51171875 C-15.84110732 6.88947833 -14.38334116 4.72381847 -12 2 C-7.92944344 -0.71370437 -4.77236696 -0.5066554 0 0 Z M-5.625 8.125 C-7.47382935 10.64613093 -7.65927797 12.93350175 -8 16 C-5.525 16.99 -5.525 16.99 -3 18 C-0.56457545 16.09401557 0.00158196 14.99403725 0.8125 11.9375 C0.9053125 10.4834375 0.9053125 10.4834375 1 9 C0.34 8.34 -0.32 7.68 -1 7 C-3.91830783 6.71539501 -3.91830783 6.71539501 -5.625 8.125 Z " fill="#252426" transform="translate(151,364)"/>
<path d="M0 0 C4.88741122 3.05463201 6.06540054 7.29707869 7.6171875 12.59765625 C8.03362682 15.21102545 7.96059406 16.54823877 7 19 C5.29760742 20.02075195 5.29760742 20.02075195 3.10546875 20.73828125 C2.31462891 21.00060547 1.52378906 21.26292969 0.70898438 21.53320312 C-0.12310547 21.79037109 -0.95519531 22.04753906 -1.8125 22.3125 C-3.04323242 22.72725586 -3.04323242 22.72725586 -4.29882812 23.15039062 C-11.00307521 25.30901682 -11.00307521 25.30901682 -15 24 C-18.98191042 11.76181203 -18.98191042 11.76181203 -17 5 C-12.41579478 -0.79057501 -7.11398243 -1.30332503 0 0 Z M-11 11 C-10.67 12.32 -10.34 13.64 -10 15 C-7.03 14.01 -4.06 13.02 -1 12 C-1.33 10.68 -1.66 9.36 -2 8 C-6.27709699 8 -7.55930376 8.70620251 -11 11 Z " fill="#2A292B" transform="translate(93,296)"/>
<path d="M0 0 C2.9375 1.375 2.9375 1.375 5 3 C5 3.66 5 4.32 5 5 C5.66 5 6.32 5 7 5 C9.85335815 9.28003722 9.84275261 12.98144616 9 18 C7.5380809 21.09615566 5.84324634 23.09096317 3 25 C-1.26940769 26.44560646 -4.65140632 26.56940622 -8.8125 24.8125 C-13.38713386 21.02208909 -15.73482531 18.81085175 -16.3125 12.6875 C-15.93790854 8.26732079 -14.83614013 6.37270719 -12 3 C-8.06991695 -0.18655382 -4.99020009 -0.5346643 0 0 Z M-6.375 9.625 C-8.30330343 11.90217604 -8.30330343 11.90217604 -7.75 14.75 C-7.5025 15.4925 -7.255 16.235 -7 17 C-5.27523089 17.95502158 -5.27523089 17.95502158 -3 18 C-0.08333333 15.91666667 -0.08333333 15.91666667 2 13 C1.95502158 10.72476911 1.95502158 10.72476911 1 9 C-2.31371301 7.895429 -3.4176496 7.60154973 -6.375 9.625 Z " fill="#282729" transform="translate(288,175)"/>
<path d="M0 0 C7.92 0 15.84 0 24 0 C25 3 25 3 23.5625 6.1875 C22.7890625 7.5796875 22.7890625 7.5796875 22 9 C20.68 9 19.36 9 18 9 C17.61781233 10.65614657 17.28604898 12.32457024 17 14 C17.33 14.33 17.66 14.66 18 15 C18.1875 18.4375 18.1875 18.4375 18 22 C17.34 22.66 16.68 23.32 16 24 C15.01 24 14.02 24 13 24 C13 23.34 13 22.68 13 22 C12.46890625 21.78601563 11.9378125 21.57203125 11.390625 21.3515625 C8.09182474 19.48655451 5.49008292 16.95775758 2.75 14.375 C2.19570312 13.859375 1.64140625 13.34375 1.0703125 12.8125 C-0.2902712 11.54574965 -1.64565837 10.27342185 -3 9 C-2.01 6.03 -1.02 3.06 0 0 Z M9 8 C9 8.66 9 9.32 9 10 C9.99 9.67 10.98 9.34 12 9 C11.01 8.67 10.02 8.34 9 8 Z " fill="#232124" transform="translate(80,218)"/>
<path d="M0 0 C2.31 0 4.62 0 7 0 C8 3 8 3 7 7 C12.28 7.66 17.56 8.32 23 9 C22.67 11.97 22.34 14.94 22 18 C16.72 17.34 11.44 16.68 6 16 C5.67 18.31 5.34 20.62 5 23 C2.69 22.67 0.38 22.34 -2 22 C-1.85758352 19.64558284 -1.71115192 17.29152516 -1.5625 14.9375 C-1.48128906 13.62652344 -1.40007812 12.31554687 -1.31640625 10.96484375 C-1.02101751 7.26336762 -0.56734612 3.66629552 0 0 Z " fill="#161515" transform="translate(71,245)"/>
<path d="M0 0 C1.67351849 2.28627482 3.1965135 4.53812938 4.6875 6.9375 C5.10322266 7.58396484 5.51894531 8.23042969 5.94726562 8.89648438 C9 13.72371459 9 13.72371459 9 16 C6.75670604 17.58838251 4.52297625 19.0595979 2.1875 20.5 C0.91012919 21.30204024 -0.36721545 22.10412215 -1.64453125 22.90625 C-3.30548828 23.94265625 -3.30548828 23.94265625 -5 25 C-5.99 25.66 -6.98 26.32 -8 27 C-9.32 27 -10.64 27 -12 27 C-15 22.92857143 -15 22.92857143 -15 20 C-13.02559073 18.5368217 -11.06761129 17.19286936 -9 15.875 C-8.14148438 15.31619141 -8.14148438 15.31619141 -7.265625 14.74609375 C-5.84778218 13.82449592 -4.42439275 12.91144179 -3 12 C-3.66 10.9275 -4.32 9.855 -5 8.75 C-6.88295807 5.69019314 -7 4.8664136 -7 1 C-3.375 -1.125 -3.375 -1.125 0 0 Z " fill="#2A292B" transform="translate(106,321)"/>
<path d="M0 0 C-0.33 0.66 -0.66 1.32 -1 2 C-3.5625 2.625 -3.5625 2.625 -6 3 C-6.33 5.64 -6.66 8.28 -7 11 C-5.10820797 11.6814823 -5.10820797 11.6814823 -3 12 C-2.34 11.34 -1.68 10.68 -1 10 C0.00496852 13.01490557 0.10335303 15.04181692 0.0625 18.1875 C0.05347656 19.08855469 0.04445312 19.98960937 0.03515625 20.91796875 C0.02355469 21.60503906 0.01195312 22.29210937 0 23 C-5.625 26 -5.625 26 -9 26 C-10.45800781 24.28759766 -10.45800781 24.28759766 -11.953125 21.9140625 C-12.489375 21.06585938 -13.025625 20.21765625 -13.578125 19.34375 C-14.12984375 18.4465625 -14.6815625 17.549375 -15.25 16.625 C-15.8171875 15.73554688 -16.384375 14.84609375 -16.96875 13.9296875 C-20.04503515 9.00165789 -20.04503515 9.00165789 -21 7 C-19.71567636 4.43135272 -18.63365249 4.053461 -16 3 C-14.68 3 -13.36 3 -12 3 C-10.25 5 -10.25 5 -9 7 C-9 5.02 -9 3.04 -9 1 C-5.57367167 -0.61798838 -3.61944899 -1.34053666 0 0 Z " fill="#282728" transform="translate(161,147)"/>
<path d="M0 0 C-0.66 0 -1.32 0 -2 0 C-2 0.66 -2 1.32 -2 2 C-3.98 2.33 -5.96 2.66 -8 3 C-8 3.66 -8 4.32 -8 5 C-8.64324219 5.07516846 -9.28648437 5.15033691 -9.94921875 5.2277832 C-21.26871669 6.56299146 -32.51428411 7.94193943 -43.6953125 10.17578125 C-50.465681 11.51094701 -57.29238288 12.55127224 -64.10546875 13.64233398 C-65.59626953 13.88512085 -65.59626953 13.88512085 -67.1171875 14.1328125 C-68.01034668 14.27605957 -68.90350586 14.41930664 -69.82373047 14.56689453 C-72.03472886 14.90735057 -72.03472886 14.90735057 -74 16 C-75.87379605 16.07033769 -77.75001102 16.0843022 -79.625 16.0625 C-80.62789063 16.05347656 -81.63078125 16.04445312 -82.6640625 16.03515625 C-83.43492187 16.02355469 -84.20578125 16.01195312 -85 16 C-81.89502718 13.93001812 -79.73370769 13.28793355 -76.13671875 12.4140625 C-74.95094238 12.12499023 -73.76516602 11.83591797 -72.54345703 11.53808594 C-70.6347583 11.0861084 -70.6347583 11.0861084 -68.6875 10.625 C-68.03618103 10.46970825 -67.38486206 10.3144165 -66.71380615 10.15441895 C-48.01784118 5.70717307 -29.29773325 2.58372089 -10.21630859 0.32543945 C-7.99447521 0.04117156 -7.99447521 0.04117156 -5.85009766 -0.56567383 C-3.60340325 -1.09310446 -2.1716514 -0.69803081 0 0 Z " fill="#8492C0" transform="translate(378,217)"/>
<path d="M0 0 C0.33 0 0.66 0 1 0 C1.25 5.625 1.25 5.625 -1 9 C-1.165 10.19625 -1.33 11.3925 -1.5 12.625 C-1.665 13.73875 -1.83 14.8525 -2 16 C-2.66 16.33 -3.32 16.66 -4 17 C-4.74498985 18.72704913 -4.74498985 18.72704913 -5.2890625 20.81640625 C-5.61777344 21.96206055 -5.61777344 21.96206055 -5.953125 23.13085938 C-6.17484375 23.93330078 -6.3965625 24.73574219 -6.625 25.5625 C-6.85445312 26.36880859 -7.08390625 27.17511719 -7.3203125 28.00585938 C-7.88724154 30.00192203 -8.44452643 32.00071919 -9 34 C-8.34 34 -7.68 34 -7 34 C-7 33.01 -7 32.02 -7 31 C-5.35 30.67 -3.7 30.34 -2 30 C-2 29.34 -2 28.68 -2 28 C1.29549466 26.27735506 4.33118845 24.70554068 8 24 C8.33 22.68 8.66 21.36 9 20 C10.65 19.67 12.3 19.34 14 19 C14 18.01 14 17.02 14 16 C14.99 16 15.98 16 17 16 C17.66 14.02 18.32 12.04 19 10 C20.65 10 22.3 10 24 10 C24 9.01 24 8.02 24 7 C24.66 7 25.32 7 26 7 C26.33 5.68 26.66 4.36 27 3 C27.66 3.33 28.32 3.66 29 4 C29.33 3.01 29.66 2.02 30 1 C30.99 1 31.98 1 33 1 C32.25 7.75 32.25 7.75 30 10 C29.505 9.01 29.505 9.01 29 8 C28.47535156 8.49886719 27.95070313 8.99773437 27.41015625 9.51171875 C21.8956392 14.62251076 16.15693036 19.30833128 10.1875 23.875 C9.45861572 24.43405029 8.72973145 24.99310059 7.97875977 25.5690918 C-1.81760353 33 -1.81760353 33 -5 33 C-5 33.66 -5 34.32 -5 35 C-10.41176471 39 -10.41176471 39 -13 39 C-13.33 41.31 -13.66 43.62 -14 46 C-14.66 46 -15.32 46 -16 46 C-15.35183328 40.66968157 -13.65944533 36.03782238 -11.75 31.0625 C-9.02023381 23.82777794 -6.48401414 16.56769234 -4.140625 9.19921875 C-2.99194203 5.97739906 -1.59209125 3.02405838 0 0 Z " fill="#D8A341" transform="translate(259,287)"/>
<path d="M0 0 C0 1.65 0 3.3 0 5 C-0.66 5 -1.32 5 -2 5 C-2 5.66 -2 6.32 -2 7 C-2.66 7 -3.32 7 -4 7 C-4 7.66 -4 8.32 -4 9 C-4.66 9 -5.32 9 -6 9 C-6 9.66 -6 10.32 -6 11 C-6.99 11.33 -7.98 11.66 -9 12 C-9 11.01 -9 10.02 -9 9 C-9.66 9 -10.32 9 -11 9 C-11 9.66 -11 10.32 -11 11 C-13.8125 12.5625 -13.8125 12.5625 -17 14 C-17.99 13.67 -18.98 13.34 -20 13 C-22.07647876 13.30806453 -22.07647876 13.30806453 -24.1875 13.9375 C-25.445625 14.288125 -26.70375 14.63875 -28 15 C-28.33 16.32 -28.66 17.64 -29 19 C-32.63 19 -36.26 19 -40 19 C-36.86862369 15.51296119 -33.42688753 13.32954594 -29.3125 11.1875 C-28.66692139 10.84783203 -28.02134277 10.50816406 -27.35620117 10.15820312 C-22.27259041 7.53957577 -17.08807236 5.2037201 -11.8125 3 C-11.09425049 2.69731201 -10.37600098 2.39462402 -9.63598633 2.08276367 C-6.15782738 0.67256515 -3.80782989 0 0 0 Z " fill="#D32124" transform="translate(269,224)"/>
<path d="M0 0 C-44.62765957 10 -44.62765957 10 -63 10 C-63.33 10.66 -63.66 11.32 -64 12 C-70.54015458 13.23795783 -77.36727857 13.10873314 -84 13 C-83.67 13.99 -83.34 14.98 -83 16 C-84.32 16.33 -85.64 16.66 -87 17 C-87 16.34 -87 15.68 -87 15 C-89.97 15 -92.94 15 -96 15 C-90.99920908 9.99920908 -82.48380834 10.6576267 -75.81201172 10.42944336 C-71.49605933 10.24519387 -68.06134783 9.38967836 -64 8 C-60.89067963 7.40847787 -57.76058692 6.98969822 -54.625 6.5625 C-48.46180015 5.68619447 -42.35417099 4.7221139 -36.25 3.5 C-29.28047503 2.15750954 -22.28871244 1.15943769 -15.25 0.25 C-14.20102539 0.11013672 -13.15205078 -0.02972656 -12.07128906 -0.17382812 C-10.58967285 -0.35848633 -10.58967285 -0.35848633 -9.078125 -0.546875 C-8.19543945 -0.65870117 -7.31275391 -0.77052734 -6.40332031 -0.88574219 C-4.02366878 -0.99887475 -2.26052828 -0.70977701 0 0 Z " fill="#3854A0" transform="translate(374,222)"/>
<path d="M0 0 C0 1.65 0 3.3 0 5 C-1.98 5.99 -1.98 5.99 -4 7 C-4 5.35 -4 3.7 -4 2 C-12.19372524 6.56278033 -19.99890558 11.57715338 -27.76708984 16.82324219 C-31.45911628 19.31586551 -35.14497981 21.76209564 -39 24 C-39 23.01 -39 22.02 -39 21 C-37.36368108 19.95107762 -35.69514137 18.95093297 -34 18 C-33.67 17.34 -33.34 16.68 -33 16 C-33.66 16 -34.32 16 -35 16 C-35 15.01 -35 14.02 -35 13 C-33.56342755 12.66269158 -32.12569907 12.33030409 -30.6875 12 C-29.88699219 11.814375 -29.08648437 11.62875 -28.26171875 11.4375 C-26 11 -26 11 -23 11 C-22.67 10.01 -22.34 9.02 -22 8 C-19.8203125 6.61328125 -19.8203125 6.61328125 -17.125 5.3125 C-16.24070313 4.87550781 -15.35640625 4.43851562 -14.4453125 3.98828125 C-12 3 -12 3 -9 3 C-9 2.34 -9 1.68 -9 1 C-5.92677456 0.08941469 -3.19902639 -0.08886184 0 0 Z " fill="#F0C580" transform="translate(264,280)"/>
<path d="M0 0 C5.57670126 3.17106542 9.00185079 5.88066805 11 12 C11.265625 15.59375 11.265625 15.59375 11.25 19.5 C11.25515625 20.7890625 11.2603125 22.078125 11.265625 23.40625 C11.01830367 26.7523621 10.4505069 29.00689053 9 32 C8.34 32 7.68 32 7 32 C6.34 33.32 5.68 34.64 5 36 C4.34 34.68 3.68 33.36 3 32 C3.72123047 31.40058594 3.72123047 31.40058594 4.45703125 30.7890625 C7.29464498 27.49886734 6.79473512 23.18378117 7 19 C7.06445312 18.15824219 7.12890625 17.31648438 7.1953125 16.44921875 C7.30459926 14.22341166 7.35506602 12.20047493 7 10 C5.17562116 8.06788056 5.17562116 8.06788056 3 7 C2.67 6.01 2.34 5.02 2 4 C-2.62921525 2.9838308 -6.34462607 3.16203269 -11 4 C-7.43363078 0.27152309 -5.24493402 -0.50432058 0 0 Z " fill="#56A877" transform="translate(197,220)"/>
<path d="M0 0 C0 0.66 0 1.32 0 2 C-0.99 2.33 -1.98 2.66 -3 3 C-3.66 3.886875 -4.32 4.77375 -5 5.6875 C-7.40454175 8.77174504 -9.93827751 10.11274199 -13.4375 11.8125 C-18.53363189 14.40851342 -20.94213772 17.0534955 -23.7890625 21.94921875 C-25.20826724 24.35271065 -26.9596805 26.11081528 -29 28 C-29.33 28.66 -29.66 29.32 -30 30 C-30.66 30 -31.32 30 -32 30 C-31.896875 30.886875 -31.79375 31.77375 -31.6875 32.6875 C-32.09498572 37.00684858 -33.7722703 38.25642975 -37 41 C-37.33 40.34 -37.66 39.68 -38 39 C-33.85216345 28.27918052 -25.78677899 14.81055142 -15.0625 9.5625 C-14.381875 9.376875 -13.70125 9.19125 -13 9 C-13 8.34 -13 7.68 -13 7 C-10.6640625 5.2734375 -10.6640625 5.2734375 -7.625 3.375 C-6.62726563 2.74335938 -5.62953125 2.11171875 -4.6015625 1.4609375 C-2 0 -2 0 0 0 Z " fill="#D65C60" transform="translate(229,243)"/>
<path d="M0 0 C0 1.65 0 3.3 0 5 C-0.66 5 -1.32 5 -2 5 C-2 5.66 -2 6.32 -2 7 C-2.66 7 -3.32 7 -4 7 C-4 7.66 -4 8.32 -4 9 C-4.66 9 -5.32 9 -6 9 C-6 9.66 -6 10.32 -6 11 C-6.99 11.33 -7.98 11.66 -9 12 C-9.33 10.35 -9.66 8.7 -10 7 C-10.66 7.66 -11.32 8.32 -12 9 C-14.3828125 9.1953125 -14.3828125 9.1953125 -17.125 9.125 C-18.49011719 9.09792969 -18.49011719 9.09792969 -19.8828125 9.0703125 C-20.58148438 9.04710937 -21.28015625 9.02390625 -22 9 C-20.25568078 5.51136156 -16.17494047 4.78487733 -12.6875 3.375 C-11.91470703 3.05015625 -11.14191406 2.7253125 -10.34570312 2.390625 C-9.59611328 2.08382812 -8.84652344 1.77703125 -8.07421875 1.4609375 C-7.04687622 1.04013916 -7.04687622 1.04013916 -5.9987793 0.61083984 C-4 0 -4 0 0 0 Z " fill="#D14F55" transform="translate(269,224)"/>
<path d="M0 0 C0.33 0 0.66 0 1 0 C1.25 5.625 1.25 5.625 -1 9 C-1.165 10.19625 -1.33 11.3925 -1.5 12.625 C-1.665 13.73875 -1.83 14.8525 -2 16 C-2.66 16.33 -3.32 16.66 -4 17 C-4.78623891 19.16072227 -5.48201226 21.35490875 -6.125 23.5625 C-6.47820312 24.76003906 -6.83140625 25.95757812 -7.1953125 27.19140625 C-7.46085938 28.11824219 -7.72640625 29.04507812 -8 30 C-8.66 30 -9.32 30 -10 30 C-10 32.64 -10 35.28 -10 38 C-11.485 38.495 -11.485 38.495 -13 39 C-13.33 41.31 -13.66 43.62 -14 46 C-14.66 46 -15.32 46 -16 46 C-15.35183328 40.66968157 -13.65944533 36.03782238 -11.75 31.0625 C-9.02023381 23.82777794 -6.48401414 16.56769234 -4.140625 9.19921875 C-2.99194203 5.97739906 -1.59209125 3.02405838 0 0 Z " fill="#D8BB84" transform="translate(259,287)"/>
<path d="M0 0 C0.66 0 1.32 0 2 0 C2 1.32 2 2.64 2 4 C1.34 4 0.68 4 0 4 C0.01160156 4.59167969 0.02320313 5.18335938 0.03515625 5.79296875 C0.1120797 12.52926526 0.1120797 12.52926526 -0.625 15.625 C-1.17005615 19.07702231 -0.05836752 21.70730105 1 25 C1.35371498 26.66246041 1.69595322 28.32774271 2 30 C2.99 30 3.98 30 5 30 C5.33 30.99 5.66 31.98 6 33 C3.5625 32.1875 3.5625 32.1875 1 31 C0.67 30.01 0.34 29.02 0 28 C-0.66 28 -1.32 28 -2 28 C-4.53565488 24.1559472 -4.36732011 20.13031643 -4.375 15.6875 C-4.39949219 14.95337891 -4.42398438 14.21925781 -4.44921875 13.46289062 C-4.47904192 7.86110466 -3.10823199 4.65006249 0 0 Z " fill="#76B58C" transform="translate(184,224)"/>
<path d="M0 0 C0 1.32 0 2.64 0 4 C-6.25287775 6.53739967 -12.22174784 7.9866265 -19 7 C-19.66 6.34 -20.32 5.68 -21 5 C-19.02 4.67 -17.04 4.34 -15 4 C-14.67 3.01 -14.34 2.02 -14 1 C-9.27616037 0.34843591 -4.78025483 -0.11950637 0 0 Z " fill="#5263A0" transform="translate(421,210)"/>
<path d="M0 0 C-1.3921875 0.6496875 -1.3921875 0.6496875 -2.8125 1.3125 C-5.92129623 2.71895967 -5.92129623 2.71895967 -7.4375 4.625 C-11.48996548 8.19116962 -18.85901972 7.09019264 -24 7 C-24 7.66 -24 8.32 -24 9 C-28.09003859 10.14982602 -32.03177051 10.11094256 -36.25 10.0625 C-36.99507812 10.05798828 -37.74015625 10.05347656 -38.5078125 10.04882812 C-40.3385764 10.03709246 -42.16929873 10.0191585 -44 10 C-44 9.67 -44 9.34 -44 9 C-43.24460938 8.92523438 -42.48921875 8.85046875 -41.7109375 8.7734375 C-33.73361057 7.82064201 -26.17768326 6.12538343 -18.4375 4 C-17.01026611 3.60820557 -17.01026611 3.60820557 -15.55419922 3.20849609 C-10.38656526 1.76985144 -10.38656526 1.76985144 -5.38696289 -0.15234375 C-3 -1 -3 -1 0 0 Z " fill="#F38937" transform="translate(248,286)"/>
<path d="M0 0 C0.33 0 0.66 0 1 0 C0.97679687 0.9178125 0.95359375 1.835625 0.9296875 2.78125 C0.77031472 12.56870095 0.77031472 12.56870095 3 22 C3.4846875 22.48082031 3.969375 22.96164062 4.46875 23.45703125 C6.22079142 25.22248115 6.85366977 26.67056951 7.6875 29 C7.93886719 29.680625 8.19023437 30.36125 8.44921875 31.0625 C9 33 9 33 9 36 C8.34 36 7.68 36 7 36 C5.30859375 33.515625 5.30859375 33.515625 3.4375 30.25 C2.81746094 29.18265625 2.19742188 28.1153125 1.55859375 27.015625 C-1.02821231 22.01057669 -1.13619936 18.21257639 -1.125 12.5625 C-1.12757813 11.26441406 -1.13015625 9.96632813 -1.1328125 8.62890625 C-1.02191827 5.59888459 -0.71254666 2.93501362 0 0 Z " fill="#EFCE8B" transform="translate(190,284)"/>
<path d="M0 0 C-0.969375 0.268125 -1.93875 0.53625 -2.9375 0.8125 C-4.4534375 1.4003125 -4.4534375 1.4003125 -6 2 C-6.33 2.99 -6.66 3.98 -7 5 C-9.31 5 -11.62 5 -14 5 C-12.16666667 8.16666667 -12.16666667 8.16666667 -9 10 C-17.90763766 10.45293073 -17.90763766 10.45293073 -22 7 C-22 6.01 -22 5.02 -22 4 C-15.5942029 2.11594203 -15.5942029 2.11594203 -12.4375 1.5 C-9.85660014 1.0337323 -9.85660014 1.0337323 -6.9375 -0.125 C-3.99952293 -1.0001421 -2.80111341 -1.07735131 0 0 Z " fill="#293E84" transform="translate(273,241)"/>
<path d="M0 0 C0.99 0.33 1.98 0.66 3 1 C2.01 1.495 2.01 1.495 1 2 C0.53348793 4.12576782 0.53348793 4.12576782 0.375 6.5625 C0.30023438 7.38878906 0.22546875 8.21507812 0.1484375 9.06640625 C0.09945313 9.70449219 0.05046875 10.34257812 0 11 C-2.475 10.505 -2.475 10.505 -5 10 C-5 9.34 -5 8.68 -5 8 C-6.41791408 8.45445964 -7.83428046 8.91374944 -9.25 9.375 C-10.03890625 9.63023437 -10.8278125 9.88546875 -11.640625 10.1484375 C-14.0057443 10.92656738 -14.0057443 10.92656738 -16.046875 12.1640625 C-18.47518109 13.20337751 -19.5269479 12.72725479 -22 12 C-21.36908447 11.67201416 -20.73816895 11.34402832 -20.08813477 11.00610352 C-17.24524542 9.52683603 -14.40385739 8.04470777 -11.5625 6.5625 C-10.56927734 6.04623047 -9.57605469 5.52996094 -8.55273438 4.99804688 C-7.60849609 4.50498047 -6.66425781 4.01191406 -5.69140625 3.50390625 C-4.81685791 3.04830322 -3.94230957 2.5927002 -3.04125977 2.12329102 C-1.06808311 1.16094783 -1.06808311 1.16094783 0 0 Z " fill="#F29D3F" transform="translate(300,259)"/>
<path d="M0 0 C1.03115279 3.26913624 0.9638984 5.86041348 0.5625 9.25 C0.46066406 10.14203125 0.35882813 11.0340625 0.25390625 11.953125 C0.17011719 12.62859375 0.08632812 13.3040625 0 14 C0.33 13.67 0.66 13.34 1 13 C1.66 13 2.32 13 3 13 C3 12.34 3 11.68 3 11 C3.66 11 4.32 11 5 11 C3.63231579 14.98907894 1.99817654 18.00182346 -1 21 C-3.75 21.3125 -3.75 21.3125 -6 21 C-5.42381249 15.85404946 -4.25256722 11.44921945 -2.4375 6.5625 C-1.98246094 5.32628906 -1.52742187 4.09007812 -1.05859375 2.81640625 C-0.70925781 1.88699219 -0.35992187 0.95757812 0 0 Z " fill="#4A494B" transform="translate(224,381)"/>
<path d="M0 0 C-2 2 -2 2 -4.1640625 2.1953125 C-5.38222656 2.16050781 -5.38222656 2.16050781 -6.625 2.125 C-7.44226563 2.10695312 -8.25953125 2.08890625 -9.1015625 2.0703125 C-9.72804688 2.04710937 -10.35453125 2.02390625 -11 2 C-11 2.66 -11 3.32 -11 4 C-15.19806497 5.01499434 -19.14879943 5.12910473 -23.4609375 5.1328125 C-24.16973053 5.13376923 -24.87852356 5.13472595 -25.60879517 5.13571167 C-27.10312998 5.13638976 -28.59746779 5.1345614 -30.09179688 5.13037109 C-32.36074562 5.12503353 -34.62949499 5.13032043 -36.8984375 5.13671875 C-38.35677126 5.13605759 -39.81510491 5.13477565 -41.2734375 5.1328125 C-42.58747559 5.13168457 -43.90151367 5.13055664 -45.25537109 5.12939453 C-48.938022 5.00214163 -52.37002419 4.59158208 -56 4 C-56 3.67 -56 3.34 -56 3 C-55.03586182 3.00523682 -54.07172363 3.01047363 -53.07836914 3.01586914 C-49.51327436 3.03392118 -45.94818364 3.04543274 -42.38305664 3.05493164 C-40.83780234 3.0599714 -39.29255284 3.0668032 -37.74731445 3.07543945 C-35.53074971 3.08752076 -33.31424782 3.09323173 -31.09765625 3.09765625 C-30.05545677 3.10539818 -30.05545677 3.10539818 -28.99220276 3.11329651 C-27.3277067 3.11349277 -25.66334501 3.06189129 -24 3 C-23.67 2.67 -23.34 2.34 -23 2 C-20.08184498 1.59535705 -17.17855411 1.24540873 -14.25 0.9375 C-13.43789063 0.84662109 -12.62578125 0.75574219 -11.7890625 0.66210938 C-7.84190016 0.23460726 -3.9770436 -0.12125133 0 0 Z " fill="#632F66" transform="translate(320,248)"/>
<path d="M0 0 C1.65 0.33 3.3 0.66 5 1 C5.71484375 2.671875 5.71484375 2.671875 6 5 C4.56640625 7.578125 4.56640625 7.578125 2.5625 10.25 C1.57443359 11.58804688 1.57443359 11.58804688 0.56640625 12.953125 C0.04949219 13.62859375 -0.46742187 14.3040625 -1 15 C-2.51953125 13.62109375 -2.51953125 13.62109375 -4 12 C-3.6875 10.0625 -3.6875 10.0625 -3 8 C-3 6.68 -3 5.36 -3 4 C-1.5 1.75 -1.5 1.75 0 0 Z " fill="#373538" transform="translate(114,194)"/>
<path d="M0 0 C0.66 0 1.32 0 2 0 C1.91096553 2.93813755 1.36987295 4.6101104 -0.66015625 6.75 C-1.95226412 7.94192456 -3.26593101 9.11096468 -4.6015625 10.25390625 C-6.24206918 11.90787545 -6.24206918 11.90787545 -5.8984375 14.15234375 C-5.60195312 14.76207031 -5.30546875 15.37179688 -5 16 C-4.01 16.33 -3.02 16.66 -2 17 C-2 17.66 -2 18.32 -2 19 C-4.33294775 19.04241723 -6.66702567 19.04092937 -9 19 C-9.33 18.67 -9.66 18.34 -10 18 C-9.91062197 16.47480724 -9.75462854 14.95318071 -9.5625 13.4375 C-9.46066406 12.61121094 -9.35882813 11.78492188 -9.25390625 10.93359375 C-9.17011719 10.29550781 -9.08632812 9.65742188 -9 9 C-8.01 9 -7.02 9 -6 9 C-6 7.68 -6 6.36 -6 5 C-5.01 5 -4.02 5 -3 5 C-2.67 4.01 -2.34 3.02 -2 2 C-1.34 2 -0.68 2 0 2 C0 1.34 0 0.68 0 0 Z " fill="#C3262F" transform="translate(258,233)"/>
<path d="M0 0 C1.49080078 0.02707031 1.49080078 0.02707031 3.01171875 0.0546875 C3.77097656 0.07789063 4.53023437 0.10109375 5.3125 0.125 C4.4375 4.875 4.4375 4.875 3.3125 7.125 C0.25 7.75 0.25 7.75 -2.6875 8.125 C-2.6875 7.465 -2.6875 6.805 -2.6875 6.125 C-3.3475 5.795 -4.0075 5.465 -4.6875 5.125 C-5.0175 4.795 -5.3475 4.465 -5.6875 4.125 C-6.3475 4.125 -7.0075 4.125 -7.6875 4.125 C-7.6875 4.785 -7.6875 5.445 -7.6875 6.125 C-8.3475 6.125 -9.0075 6.125 -9.6875 6.125 C-9.375 4.25 -9.375 4.25 -8.6875 2.125 C-5.26655758 -0.15562828 -4.00562778 -0.09425007 0 0 Z " fill="#050306" transform="translate(87.6875,295.875)"/>
<path d="M0 0 C-0.66 0 -1.32 0 -2 0 C-2 0.66 -2 1.32 -2 2 C-4.375 4.625 -4.375 4.625 -7 7 C-7.66 7 -8.32 7 -9 7 C-9 7.66 -9 8.32 -9 9 C-9.66 9 -10.32 9 -11 9 C-11.226875 9.70125 -11.45375 10.4025 -11.6875 11.125 C-13.40445133 14.885941 -14.98700384 17.12395821 -18 20 C-21.3125 19.875 -21.3125 19.875 -24 19 C-24 18.34 -24 17.68 -24 17 C-24.66 16.67 -25.32 16.34 -26 16 C-23.36 16.33 -20.72 16.66 -18 17 C-18 16.01 -18 15.02 -18 14 C-17.34 14 -16.68 14 -16 14 C-15.7525 13.4225 -15.505 12.845 -15.25 12.25 C-13.83400344 9.70120619 -12.05276785 8.05276785 -10 6 C-9.67 5.01 -9.34 4.02 -9 3 C-8.34 3 -7.68 3 -7 3 C-7 2.34 -7 1.68 -7 1 C-3.375 -1.125 -3.375 -1.125 0 0 Z " fill="#EBC06F" transform="translate(225,305)"/>
<path d="M0 0 C-0.66 0 -1.32 0 -2 0 C-2 0.66 -2 1.32 -2 2 C-7.07047061 3.9940053 -11.68865771 4.44503788 -17.0625 4.6875 C-17.85205078 4.73455078 -18.64160156 4.78160156 -19.45507812 4.83007812 C-23.48182512 5.03597215 -27.06364611 5.05339048 -31 4 C-31 3.67 -31 3.34 -31 3 C-29.98631348 2.87153687 -29.98631348 2.87153687 -28.95214844 2.74047852 C-25.8844445 2.35029735 -22.8172236 1.95643852 -19.75 1.5625 C-18.68652344 1.42779297 -17.62304688 1.29308594 -16.52734375 1.15429688 C-15.50253906 1.02216797 -14.47773438 0.89003906 -13.421875 0.75390625 C-12.00793457 0.57323608 -12.00793457 0.57323608 -10.56542969 0.38891602 C-8.04400635 0.05258279 -8.04400635 0.05258279 -5.80175781 -0.57446289 C-3.58302674 -1.09848027 -2.14473705 -0.68937977 0 0 Z " fill="#9DA9CD" transform="translate(378,217)"/>
<path d="M0 0 C0.99 0 1.98 0 3 0 C3 0.66 3 1.32 3 2 C5.64 2 8.28 2 11 2 C10.67 4.31 10.34 6.62 10 9 C8.35 9.33 6.7 9.66 5 10 C3.96704564 8.90716423 2.94892165 7.80029421 1.9375 6.6875 C1.36902344 6.07261719 0.80054687 5.45773437 0.21484375 4.82421875 C-0.38650391 3.92123047 -0.38650391 3.92123047 -1 3 C-0.67 2.01 -0.34 1.02 0 0 Z " fill="#151316" transform="translate(111,361)"/>
<path d="M0 0 C2.475 0.495 2.475 0.495 5 1 C5.19335938 1.85722656 5.38671875 2.71445312 5.5859375 3.59765625 C6.91792493 9.44653174 8.26380085 15.25718743 10 21 C10.66 21 11.32 21 12 21 C11.67 21.99 11.34 22.98 11 24 C10.01 23.67 9.02 23.34 8 23 C6.83203125 20.34765625 6.83203125 20.34765625 5.8125 17.0625 C5.46832031 15.98097656 5.12414062 14.89945312 4.76953125 13.78515625 C4 11 4 11 4 9 C3.01 8.67 2.02 8.34 1 8 C0.67 5.36 0.34 2.72 0 0 Z " fill="#F6BB52" transform="translate(191,298)"/>
<path d="M0 0 C0.33 0 0.66 0 1 0 C1.02578125 0.62648437 1.0515625 1.25296875 1.078125 1.8984375 C1.13484375 2.71570313 1.1915625 3.53296875 1.25 4.375 C1.29640625 5.18710937 1.3428125 5.99921875 1.390625 6.8359375 C1.7922092 9.18838927 1.7922092 9.18838927 4.046875 10.2890625 C4.69140625 10.52367187 5.3359375 10.75828125 6 11 C6 10.01 6 9.02 6 8 C7.98 8 9.96 8 12 8 C12 8.33 12 8.66 12 9 C10.35 9 8.7 9 7 9 C6.67 11.31 6.34 13.62 6 16 C3.69 15.67 1.38 15.34 -1 15 C-0.67 10.05 -0.34 5.1 0 0 Z " fill="#383839" transform="translate(70,252)"/>
<path d="M0 0 C-2.19874695 4.34496412 -4.5368449 6.32210694 -8.6875 8.8125 C-9.68136719 9.41707031 -10.67523438 10.02164062 -11.69921875 10.64453125 C-12.45847656 11.09183594 -13.21773437 11.53914063 -14 12 C-14 11.01 -14 10.02 -14 9 C-12.36368108 7.95107762 -10.69514137 6.95093297 -9 6 C-8.67 5.34 -8.34 4.68 -8 4 C-8.66 4 -9.32 4 -10 4 C-10 3.01 -10 2.02 -10 1 C-3.71428571 -1.42857143 -3.71428571 -1.42857143 0 0 Z " fill="#ECB543" transform="translate(239,292)"/>
<path d="M0 0 C0.33 0 0.66 0 1 0 C0.25 7.625 0.25 7.625 -2 11 C-2.63560389 13.36978147 -2.63560389 13.36978147 -3.0625 15.9375 C-4.3516933 23.00142694 -4.3516933 23.00142694 -5 25 C-5.66 25.33 -6.32 25.66 -7 26 C-7.65213292 28.02463255 -7.65213292 28.02463255 -8 30 C-8.66 30 -9.32 30 -10 30 C-9.57835981 28.01739401 -9.13721222 26.03892755 -8.6875 24.0625 C-8.32205078 22.40927734 -8.32205078 22.40927734 -7.94921875 20.72265625 C-7.63597656 19.82417969 -7.32273438 18.92570312 -7 18 C-6.01 17.67 -5.02 17.34 -4 17 C-4.04125 15.906875 -4.0825 14.81375 -4.125 13.6875 C-4 10 -4 10 -2 7 C-1.29187186 4.67891331 -0.61975848 2.34622853 0 0 Z " fill="#EEB045" transform="translate(261,286)"/>
<path d="M0 0 C0.75 1.5625 0.75 1.5625 1 4 C-0.13084437 6.50286409 -1.52139516 8.67007722 -3 11 C-3.33 10.34 -3.66 9.68 -4 9 C-3.67 8.34 -3.34 7.68 -3 7 C-3.99 7 -4.98 7 -6 7 C-6.04125 7.598125 -6.0825 8.19625 -6.125 8.8125 C-7 11 -7 11 -9.9375 12.8125 C-10.948125 13.204375 -11.95875 13.59625 -13 14 C-13.66 13.67 -14.32 13.34 -15 13 C-13.06478939 11.20580474 -11.1269646 9.41458671 -9.1875 7.625 C-8.64029297 7.11710937 -8.09308594 6.60921875 -7.52929688 6.0859375 C-5.09977985 3.84783697 -2.75431332 1.83620888 0 0 Z " fill="#32210E" transform="translate(288,294)"/>
<path d="M0 0 C0 0.33 0 0.66 0 1 C-0.56509277 1.08564209 -1.13018555 1.17128418 -1.71240234 1.25952148 C-4.26714633 1.64869818 -6.82106747 2.04303485 -9.375 2.4375 C-10.70917969 2.63956055 -10.70917969 2.63956055 -12.0703125 2.84570312 C-13.34648437 3.04389648 -13.34648437 3.04389648 -14.6484375 3.24609375 C-15.82672119 3.42676392 -15.82672119 3.42676392 -17.02880859 3.61108398 C-19.06611684 3.92238238 -19.06611684 3.92238238 -21 5 C-22.87379605 5.07033769 -24.75001102 5.0843022 -26.625 5.0625 C-27.62789063 5.05347656 -28.63078125 5.04445312 -29.6640625 5.03515625 C-30.43492187 5.02355469 -31.20578125 5.01195312 -32 5 C-23.08738208 -0.94174528 -10.32519078 -0.20157639 0 0 Z " fill="#6A7AAF" transform="translate(325,228)"/>
<path d="M0 0 C-3.03764089 1.6326083 -6.08078323 3.25469108 -9.125 4.875 C-9.9809375 5.33519531 -10.836875 5.79539062 -11.71875 6.26953125 C-16.07134722 8.57975593 -20.23626578 10.64116434 -25 12 C-25 11.34 -25 10.68 -25 10 C-22.3773768 8.66180502 -19.75213401 7.3292849 -17.125 6 C-16.00544922 5.42765625 -16.00544922 5.42765625 -14.86328125 4.84375 C-14.14785156 4.4828125 -13.43242187 4.121875 -12.6953125 3.75 C-12.03547363 3.41484375 -11.37563477 3.0796875 -10.69580078 2.734375 C-9 2 -9 2 -7 2 C-7 1.34 -7 0.68 -7 0 C-2.25 -1.125 -2.25 -1.125 0 0 Z " fill="#CC3314" transform="translate(297,262)"/>
<path d="M0 0 C-2.38227244 1.28276208 -4.50042016 2.14011765 -7.125 2.875 C-10.09831243 3.69882963 -10.09831243 3.69882963 -11.1875 6 C-11.455625 6.66 -11.72375 7.32 -12 8 C-12.99 8.66 -13.98 9.32 -15 10 C-15 8.35 -15 6.7 -15 5 C-14.34 5 -13.68 5 -13 5 C-13 3.68 -13 2.36 -13 1 C-8.20862412 -0.6290678 -4.94367454 -1.20577428 0 0 Z " fill="#40A865" transform="translate(199,223)"/>
<path d="M0 0 C2.51033417 1.1336993 2.96441202 2.36118938 3.9375 4.875 C3.2775 4.875 2.6175 4.875 1.9375 4.875 C1.9375 4.215 1.9375 3.555 1.9375 2.875 C1.2775 3.535 0.6175 4.195 -0.0625 4.875 C-0.0625 5.865 -0.0625 6.855 -0.0625 7.875 C-0.7225 7.875 -1.3825 7.875 -2.0625 7.875 C-2.3925 8.535 -2.7225 9.195 -3.0625 9.875 C-3.3925 8.885 -3.7225 7.895 -4.0625 6.875 C-4.7225 6.875 -5.3825 6.875 -6.0625 6.875 C-5.75 4.5 -5.75 4.5 -5.0625 1.875 C-2.0625 -0.125 -2.0625 -0.125 0 0 Z " fill="#4B484C" transform="translate(118.0625,169.125)"/>
<path d="M0 0 C0.625 1.8125 0.625 1.8125 1 4 C0.01 5.485 0.01 5.485 -1 7 C-1.66 7 -2.32 7 -3 7 C-2.896875 7.886875 -2.79375 8.77375 -2.6875 9.6875 C-3.09498572 14.00684858 -4.7722703 15.25642975 -8 18 C-8.33 17.34 -8.66 16.68 -9 16 C-7.890625 13.3203125 -7.890625 13.3203125 -6.25 10.125 C-5.45335937 8.55105469 -5.45335937 8.55105469 -4.640625 6.9453125 C-3.24412652 4.43826522 -1.79111049 2.2334932 0 0 Z " fill="#DA696E" transform="translate(200,266)"/>
<path d="M0 0 C0 1.65 0 3.3 0 5 C-0.66 5 -1.32 5 -2 5 C-2 5.66 -2 6.32 -2 7 C-2.66 7 -3.32 7 -4 7 C-4 7.66 -4 8.32 -4 9 C-4.66 9 -5.32 9 -6 9 C-6.33 9.66 -6.66 10.32 -7 11 C-7.33 9.02 -7.66 7.04 -8 5 C-7.34 4.67 -6.68 4.34 -6 4 C-6.99 3.34 -7.98 2.68 -9 2 C-5.62902617 0.50178941 -3.79557881 0 0 0 Z " fill="#D16C6E" transform="translate(269,224)"/>
<path d="M0 0 C3.43370673 1.9524999 6.35454877 4.06060974 9 7 C8.67 7.66 8.34 8.32 8 9 C3.24184261 6.29942418 3.24184261 6.29942418 1.6875 4.375 C0.01376954 2.72569375 0.01376954 2.72569375 -2.69921875 2.92578125 C-3.68535156 3.05339844 -4.67148438 3.18101562 -5.6875 3.3125 C-6.68136719 3.43238281 -7.67523438 3.55226562 -8.69921875 3.67578125 C-9.45847656 3.78277344 -10.21773437 3.88976562 -11 4 C-7.43363078 0.27152309 -5.24493402 -0.50432058 0 0 Z " fill="#90C6A2" transform="translate(197,220)"/>
<path d="M0 0 C0.81024496 2.43073487 1.05126786 3.78923214 0.4375 6.3125 C-0.15501252 9.95221977 0.88081418 12.51808855 2 16 C2.35371498 17.66246041 2.69595322 19.32774271 3 21 C3.99 21 4.98 21 6 21 C6.33 21.99 6.66 22.98 7 24 C4.5625 23.1875 4.5625 23.1875 2 22 C1.67 21.01 1.34 20.02 1 19 C0.34 19 -0.32 19 -1 19 C-1.22237877 16.58388467 -1.42832339 14.1682283 -1.625 11.75 C-1.72167969 10.72712891 -1.72167969 10.72712891 -1.8203125 9.68359375 C-2.11594735 5.8772951 -2.17561392 3.22190154 0 0 Z " fill="#37A05E" transform="translate(183,233)"/>
<path d="M0 0 C2.31 0.33 4.62 0.66 7 1 C6.2884375 1.680625 6.2884375 1.680625 5.5625 2.375 C3.90972192 3.93258204 3.90972192 3.93258204 3 6 C2.01 6 1.02 6 0 6 C-0.66 9.3 -1.32 12.6 -2 16 C-2.66 16 -3.32 16 -4 16 C-3.71515154 14.26969709 -3.42180062 12.54079286 -3.125 10.8125 C-2.96257812 9.84957031 -2.80015625 8.88664063 -2.6328125 7.89453125 C-2.01960483 5.08967396 -1.14333657 2.62775253 0 0 Z " fill="#4B494B" transform="translate(220,141)"/>
<path d="M0 0 C1.65 0 3.3 0 5 0 C5 0.99 5 1.98 5 3 C5.66 3 6.32 3 7 3 C6.67 3.99 6.34 4.98 6 6 C3.4375 7.1875 3.4375 7.1875 1 8 C1 8.99 1 9.98 1 11 C-0.32 11.33 -1.64 11.66 -3 12 C-3 11.34 -3 10.68 -3 10 C-2.01 10 -1.02 10 0 10 C0.93786082 4.94990405 0.93786082 4.94990405 0 0 Z " fill="#F4B244" transform="translate(224,293)"/>
<path d="M0 0 C-3.66499451 2.44332967 -7.36264115 3.68141403 -11.5 5.125 C-12.27214844 5.40214844 -13.04429687 5.67929688 -13.83984375 5.96484375 C-14.58363281 6.22652344 -15.32742188 6.48820313 -16.09375 6.7578125 C-17.10985352 7.11576904 -17.10985352 7.11576904 -18.14648438 7.48095703 C-20 8 -20 8 -23 8 C-23 7.34 -23 6.68 -23 6 C-21.9275 5.71125 -20.855 5.4225 -19.75 5.125 C-16.2266701 4.1847272 -16.2266701 4.1847272 -14 3 C-9.52231811 0.76115906 -4.9913915 -0.30250858 0 0 Z " fill="#495E95" transform="translate(397,221)"/>
<path d="M0 0 C-0.928125 0.433125 -1.85625 0.86625 -2.8125 1.3125 C-5.90947191 2.71104839 -5.90947191 2.71104839 -7.375 4.5625 C-9.59449198 6.52589675 -11.26578921 6.49777852 -14.1875 6.6875 C-15.08855469 6.75324219 -15.98960937 6.81898438 -16.91796875 6.88671875 C-17.60503906 6.92410156 -18.29210937 6.96148437 -19 7 C-17.36455987 3.72911974 -13.87496738 3.09617671 -10.625 1.8125 C-9.93921875 1.52697266 -9.2534375 1.24144531 -8.546875 0.94726562 C-3.36883224 -1.12294408 -3.36883224 -1.12294408 0 0 Z " fill="#F49640" transform="translate(248,286)"/>
<path d="M0 0 C0 0.66 0 1.32 0 2 C-1.32 2.33 -2.64 2.66 -4 3 C-4 3.66 -4 4.32 -4 5 C-8.29385993 8.4887612 -11.71870895 8.26854022 -17 8 C-13.9703348 5.55185821 -10.92450401 3.90547147 -7.375 2.3125 C-6.41335938 1.87550781 -5.45171875 1.43851562 -4.4609375 0.98828125 C-2 0 -2 0 0 0 Z " fill="#F5903D" transform="translate(278,272)"/>
<path d="M0 0 C0.66 0.33 1.32 0.66 2 1 C1.195625 1.61875 0.39125 2.2375 -0.4375 2.875 C-3.03874519 4.74164041 -3.03874519 4.74164041 -4 7 C-5.32 7 -6.64 7 -8 7 C-8 7.66 -8 8.32 -8 9 C-10.31 9.33 -12.62 9.66 -15 10 C-12.0761589 6.81980317 -9.16598831 4.74648691 -5.375 2.6875 C-4.41335937 2.15511719 -3.45171875 1.62273437 -2.4609375 1.07421875 C-1.64882812 0.71972656 -0.83671875 0.36523438 0 0 Z " fill="#D77177" transform="translate(244,233)"/>
<path d="M0 0 C-0.25 2.375 -0.25 2.375 -1 5 C-2.875 6.375 -2.875 6.375 -5 7 C-5.99 6.67 -6.98 6.34 -8 6 C-8.33 5.01 -8.66 4.02 -9 3 C-5.55930376 0.70620251 -4.27709699 0 0 0 Z " fill="#3A383A" transform="translate(149,150)"/>
<path d="M0 0 C0.98120464 3.05263664 0.98120464 4.94736336 0 8 C1.32 8 2.64 8 4 8 C3.34 9.32 2.68 10.64 2 12 C0.35 12 -1.3 12 -3 12 C-2.49202991 7.6822542 -1.80317221 3.96697886 0 0 Z " fill="#686769" transform="translate(221,390)"/>
<path d="M0 0 C-4.43601885 2.9573459 -7.83390661 3.15499943 -13.125 3.1875 C-14.17945313 3.20167969 -15.23390625 3.21585937 -16.3203125 3.23046875 C-19 3 -19 3 -21 1 C-13.97252688 0.33411422 -7.05985273 -0.11766421 0 0 Z " fill="#FC9F43" transform="translate(211,296)"/>
<path d="M0 0 C-5.99575684 3.99717123 -13.03934302 3.1114696 -20 3 C-20.33 2.34 -20.66 1.68 -21 1 C-13.97360585 0.25194283 -7.06608191 -0.13794954 0 0 Z " fill="#CC2F13" transform="translate(213,293)"/>
<path d="M0 0 C0 1.65 0 3.3 0 5 C-1.98 5.99 -1.98 5.99 -4 7 C-4 5.35 -4 3.7 -4 2 C-5.36125 2.7734375 -5.36125 2.7734375 -6.75 3.5625 C-10 5 -10 5 -12.375 4.6875 C-12.91125 4.460625 -13.4475 4.23375 -14 4 C-12.35 3.67 -10.7 3.34 -9 3 C-9 2.34 -9 1.68 -9 1 C-5.92677456 0.08941469 -3.19902639 -0.08886184 0 0 Z " fill="#E8AD7F" transform="translate(264,280)"/>
<path d="M0 0 C0 3 0 3 -1 6 C-1.03954234 8.33299825 -1.04401732 10.66708189 -1 13 C1.97 13.33 4.94 13.66 8 14 C8 14.33 8 14.66 8 15 C4.04 15 0.08 15 -4 15 C-3.9131724 12.87422093 -3.8050049 10.74930419 -3.6875 8.625 C-3.62949219 7.44164062 -3.57148438 6.25828125 -3.51171875 5.0390625 C-3.34285156 4.03617187 -3.17398438 3.03328125 -3 2 C-2.01 1.34 -1.02 0.68 0 0 Z " fill="#D24B3C" transform="translate(194,282)"/>
<path d="M0 0 C-2.61666628 2.61666628 -5.64348017 3.71634007 -9 5.125 C-9.64195312 5.40214844 -10.28390625 5.67929688 -10.9453125 5.96484375 C-15.73745382 8 -15.73745382 8 -18 8 C-18 7.01 -18 6.02 -18 5 C-12.46304815 2.11224733 -6.35608175 -0.61510469 0 0 Z " fill="#AA526E" transform="translate(332,246)"/>
<path d="M0 0 C0.66 0 1.32 0 2 0 C1.91433603 2.912575 1.42089045 4.56798024 -0.625 6.66796875 C-2.38391375 8.16091772 -4.16313019 9.60436262 -6 11 C-6 9.02 -6 7.04 -6 5 C-5.01 5 -4.02 5 -3 5 C-2.67 4.01 -2.34 3.02 -2 2 C-1.34 2 -0.68 2 0 2 C0 1.34 0 0.68 0 0 Z " fill="#CD383F" transform="translate(258,233)"/>
<path d="M0 0 C0.99 0 1.98 0 3 0 C2.25 1.9375 2.25 1.9375 1 4 C-1.125 4.75 -1.125 4.75 -3 5 C-3 5.66 -3 6.32 -3 7 C-4.65 7.66 -6.3 8.32 -8 9 C-9.33332095 6.3333581 -8.67102033 4.83319697 -8 2 C-7.67 3.32 -7.34 4.64 -7 6 C-6.34 6 -5.68 6 -5 6 C-5 5.01 -5 4.02 -5 3 C-3.35 2.67 -1.7 2.34 0 2 C0 1.34 0 0.68 0 0 Z " fill="#DCA744" transform="translate(257,315)"/>
<path d="M0 0 C0 0.66 0 1.32 0 2 C-0.99 2 -1.98 2 -3 2 C-2.67 2.99 -2.34 3.98 -2 5 C-3.32 5.33 -4.64 5.66 -6 6 C-6 5.34 -6 4.68 -6 4 C-8.97 4 -11.94 4 -15 4 C-11.2354727 0.2354727 -5.16743168 -0.32296448 0 0 Z " fill="#5069A2" transform="translate(293,233)"/>
<path d="M0 0 C2.16874252 0.50603992 3.99967627 0.99983813 6 2 C5.6875 4.375 5.6875 4.375 5 7 C4.01 7.66 3.02 8.32 2 9 C1.34 7.68 0.68 6.36 0 5 C-0.66 5 -1.32 5 -2 5 C-1.34 3.35 -0.68 1.7 0 0 Z " fill="#2E2C2E" transform="translate(106,190)"/>
<path d="M0 0 C-0.66 0 -1.32 0 -2 0 C-2.33 0.99 -2.66 1.98 -3 3 C-11.415 3.495 -11.415 3.495 -20 4 C-20 3.67 -20 3.34 -20 3 C-17.23132003 2.30259196 -14.46063138 1.61677147 -11.6875 0.9375 C-10.90181641 0.73833984 -10.11613281 0.53917969 -9.30664062 0.33398438 C-8.54931641 0.15029297 -7.79199219 -0.03339844 -7.01171875 -0.22265625 C-6.31522217 -0.39547119 -5.61872559 -0.56828613 -4.90112305 -0.74633789 C-3 -1 -3 -1 0 0 Z " fill="#94A0C2" transform="translate(328,225)"/>
<path d="M0 0 C0 0.66 0 1.32 0 2 C-2 3.625 -2 3.625 -4 5 C-2.03177114 6.96822886 1.34808709 6.66248381 4 7 C4 7.33 4 7.66 4 8 C-4.90763766 8.45293073 -4.90763766 8.45293073 -9 5 C-9 4.01 -9 3.02 -9 2 C-2.25 0 -2.25 0 0 0 Z " fill="#603166" transform="translate(260,243)"/>
<path d="M0 0 C0.33 0 0.66 0 1 0 C0.98839844 0.92941406 0.97679687 1.85882813 0.96484375 2.81640625 C0.88246463 11.95709317 0.88246463 11.95709317 2 21 C1.01 20.67 0.02 20.34 -1 20 C-1.02712351 17.60408962 -1.0468982 15.20849043 -1.0625 12.8125 C-1.07087891 12.13896484 -1.07925781 11.46542969 -1.08789062 10.77148438 C-1.10606538 7.04565869 -0.89299392 3.6211958 0 0 Z " fill="#EDB8A0" transform="translate(190,284)"/>
<path d="M0 0 C2.625 0.375 2.625 0.375 5 1 C1.99133303 3.00577798 0.35523925 3.45878503 -3.125 4.0625 C-6.36108392 4.41604626 -6.36108392 4.41604626 -9 6 C-10.99958364 6.04080783 -13.00045254 6.04254356 -15 6 C-13.25778498 3.84379329 -12.36152879 3.06621192 -9.58984375 2.55859375 C-8.71457031 2.51863281 -7.83929688 2.47867188 -6.9375 2.4375 C-2.99499171 2.38197684 -2.99499171 2.38197684 0 0 Z " fill="#5A518B" transform="translate(335,242)"/>
<path d="M0 0 C0.91007812 0.00902344 1.82015625 0.01804688 2.7578125 0.02734375 C3.45648438 0.03894531 4.15515625 0.05054688 4.875 0.0625 C4.875 0.7225 4.875 1.3825 4.875 2.0625 C-3.55357143 4.34821429 -3.55357143 4.34821429 -8.125 4.0625 C-7.795 3.0725 -7.465 2.0825 -7.125 1.0625 C-4.60024538 -0.19987731 -2.81299534 -0.03606404 0 0 Z " fill="#6D80B4" transform="translate(333.125,223.9375)"/>
<path d="M0 0 C2.64 0 5.28 0 8 0 C8 0.99 8 1.98 8 3 C7.401875 3.144375 6.80375 3.28875 6.1875 3.4375 C4.43849596 3.8872439 2.71322977 4.42892341 1 5 C-0.39439664 5.06665376 -1.79169875 5.08538199 -3.1875 5.0625 C-5.0746875 5.0315625 -5.0746875 5.0315625 -7 5 C-7 4.67 -7 4.34 -7 4 C-4.69 4 -2.38 4 0 4 C0 2.68 0 1.36 0 0 Z " fill="#293B87" transform="translate(332,240)"/>
<path d="M0 0 C0.33 0 0.66 0 1 0 C1.33 5.28 1.66 10.56 2 16 C-2 17 -2 17 -4.25 16.0625 C-4.8275 15.711875 -5.405 15.36125 -6 15 C-4.02 15 -2.04 15 0 15 C0 10.05 0 5.1 0 0 Z " fill="#7C7A7B" transform="translate(195,384)"/>
<path d="M0 0 C3.63 0 7.26 0 11 0 C11 0.33 11 0.66 11 1 C9.02 1 7.04 1 5 1 C5 1.99 5 2.98 5 4 C3.35 4.33 1.7 4.66 0 5 C0 4.34 0 3.68 0 3 C-1.65 3 -3.3 3 -5 3 C-5 2.67 -5 2.34 -5 2 C-3.35 2 -1.7 2 0 2 C0 1.34 0 0.68 0 0 Z " fill="#AD2C3D" transform="translate(309,250)"/>
<path d="M0 0 C0.8353125 0.37125 0.8353125 0.37125 1.6875 0.75 C-3.9375 4.625 -3.9375 4.625 -7.3125 5.75 C-8.04573796 7.76508358 -8.04573796 7.76508358 -8.3125 9.75 C-9.6325 9.42 -10.9525 9.09 -12.3125 8.75 C-12.3125 8.09 -12.3125 7.43 -12.3125 6.75 C-10.9925 6.75 -9.6725 6.75 -8.3125 6.75 C-7.9825 5.76 -7.6525 4.77 -7.3125 3.75 C-3.1125 -0.33648649 -3.1125 -0.33648649 0 0 Z " fill="#CC2B33" transform="translate(248.3125,233.25)"/>
<path d="M0 0 C1.98 0 3.96 0 6 0 C4.54987453 2.90025094 2.68687091 3.08706855 -0.3125 4.1875 C-1.27800781 4.55230469 -2.24351562 4.91710937 -3.23828125 5.29296875 C-6.0347797 6.008904 -7.33859538 5.99249531 -10 5 C-6.86501708 3.14223235 -4.62528568 2.79859524 -1 3 C-0.67 2.01 -0.34 1.02 0 0 Z " fill="#CE3618" transform="translate(240,284)"/>
<path d="M0 0 C-4.17790164 2.78526776 -8.24489717 2.82939126 -13.1640625 3.4375 C-14.09992188 3.623125 -15.03578125 3.80875 -16 4 C-16.33 4.66 -16.66 5.32 -17 6 C-17.66 5.34 -18.32 4.68 -19 4 C-16.77585391 3.13020539 -14.54727408 2.27916816 -12.3125 1.4375 C-11.68666016 1.19064453 -11.06082031 0.94378906 -10.41601562 0.68945312 C-6.5479443 -0.74841632 -3.96399767 -1.26575069 0 0 Z " fill="#6A81B0" transform="translate(279,238)"/>
<path d="M0 0 C0.98484375 0.02707031 1.9696875 0.05414063 2.984375 0.08203125 C3.73203125 0.11683594 4.4796875 0.15164063 5.25 0.1875 C4.26 0.5175 3.27 0.8475 2.25 1.1875 C1.92 1.8475 1.59 2.5075 1.25 3.1875 C-2.41666667 3.1875 -6.08333333 3.1875 -9.75 3.1875 C-6.47698081 0.21840402 -4.36934238 -0.15604794 0 0 Z " fill="#4D494C" transform="translate(87.75,295.8125)"/>
<path d="M0 0 C-2.09836004 1.03271642 -4.20390891 2.05083717 -6.3125 3.0625 C-7.48425781 3.63097656 -8.65601563 4.19945312 -9.86328125 4.78515625 C-13 6 -13 6 -16 5 C-15.34 5 -14.68 5 -14 5 C-14 4.34 -14 3.68 -14 3 C-12.42274653 2.29866401 -10.83788667 1.614417 -9.25 0.9375 C-7.92742187 0.36322266 -7.92742187 0.36322266 -6.578125 -0.22265625 C-3.84743691 -1.04600008 -2.63098653 -0.9773992 0 0 Z " fill="#C83922" transform="translate(272,275)"/>
<path d="M0 0 C3.96 0.33 7.92 0.66 12 1 C11.67 3.97 11.34 6.94 11 10 C10.01 9.67 9.02 9.34 8 9 C8.66 9 9.32 9 10 9 C9.814375 8.21625 9.62875 7.4325 9.4375 6.625 C9 4 9 4 10 2 C6.7 1.67 3.4 1.34 0 1 C0 0.67 0 0.34 0 0 Z " fill="#797878" transform="translate(82,253)"/>
<path d="M0 0 C2.16874252 0.50603992 3.99967627 0.99983813 6 2 C4.68775452 5.93673644 3.08089673 8.22719294 0 11 C0 10.01 0 9.02 0 8 C0.66 8 1.32 8 2 8 C1.7215625 6.824375 1.7215625 6.824375 1.4375 5.625 C1 3 1 3 2 1 C1.34 0.67 0.68 0.34 0 0 Z " fill="#585759" transform="translate(101,184)"/>
<path d="M0 0 C0.66 0 1.32 0 2 0 C1.45144652 4.571279 0.58255197 8.67435795 -1 13 C-3.31 12.67 -5.62 12.34 -8 12 C-8 11.67 -8 11.34 -8 11 C-4.535 10.505 -4.535 10.505 -1 10 C-0.67 6.7 -0.34 3.4 0 0 Z " fill="#6C6B6D" transform="translate(238,156)"/>
<path d="M0 0 C0 0.66 0 1.32 0 2 C-4.38436379 4.19218189 -10.36901402 3.15774649 -15 2 C-15 1.67 -15 1.34 -15 1 C-13.43784452 0.83013455 -11.8752548 0.66426036 -10.3125 0.5 C-9.44238281 0.4071875 -8.57226562 0.314375 -7.67578125 0.21875 C-5.10276661 0.00840136 -2.58015636 -0.03719144 0 0 Z " fill="#B5BEDB" transform="translate(362,219)"/>
<path d="M0 0 C-5.445 3.96 -5.445 3.96 -11 8 C-11.33 7.01 -11.66 6.02 -12 5 C-11.195625 4.54625 -10.39125 4.0925 -9.5625 3.625 C-6.91143428 2.25274335 -6.91143428 2.25274335 -6 0 C-3 -1 -3 -1 0 0 Z " fill="#EECB89" transform="translate(237,296)"/>
<path d="M0 0 C0.99386719 0.00902344 1.98773438 0.01804687 3.01171875 0.02734375 C4.15060547 0.04474609 4.15060547 0.04474609 5.3125 0.0625 C5.3125 0.3925 5.3125 0.7225 5.3125 1.0625 C0.08737721 2.52920113 -4.2689234 3.28827402 -9.6875 3.0625 C-7.75082354 -0.81085293 -3.83275078 -0.04509119 0 0 Z " fill="#CC2F14" transform="translate(223.6875,289.9375)"/>
<path d="M0 0 C0.33 0 0.66 0 1 0 C1.33 5.28 1.66 10.56 2 16 C1.01 15.67 0.02 15.34 -1 15 C-0.67 10.05 -0.34 5.1 0 0 Z " fill="#686768" transform="translate(172,150)"/>
<path d="M0 0 C0.66 0.33 1.32 0.66 2 1 C1.02526874 2.66926454 0.04510211 4.33535642 -0.9375 6 C-1.75541016 7.3921875 -1.75541016 7.3921875 -2.58984375 8.8125 C-3.05519531 9.534375 -3.52054687 10.25625 -4 11 C-4.33 11 -4.66 11 -5 11 C-5.3125 8.3125 -5.3125 8.3125 -5 5 C-2.5 2.125 -2.5 2.125 0 0 Z " fill="#4A474A" transform="translate(278,314)"/>
<path d="M0 0 C0.66 0 1.32 0 2 0 C-1.07517084 10.55808656 -1.07517084 10.55808656 -3 15 C-4.11328125 13.25390625 -4.11328125 13.25390625 -5 11 C-4.35546875 8.96484375 -4.35546875 8.96484375 -3.1875 6.9375 C-1.85769259 4.57289365 -0.86592881 2.59778644 0 0 Z " fill="#DCBA7E" transform="translate(296,276)"/>
<path d="M0 0 C-0.33 0.66 -0.66 1.32 -1 2 C-3.5625 2.625 -3.5625 2.625 -6 3 C-6.33 4.65 -6.66 6.3 -7 8 C-7.66 7.67 -8.32 7.34 -9 7 C-9 5.02 -9 3.04 -9 1 C-5.57367167 -0.61798838 -3.61944899 -1.34053666 0 0 Z " fill="#696669" transform="translate(161,147)"/>
<path d="M0 0 C0 0.66 0 1.32 0 2 C-0.99 2.33 -1.98 2.66 -3 3 C-3.45375 3.680625 -3.9075 4.36125 -4.375 5.0625 C-6 7 -6 7 -8.6875 7.25 C-9.450625 7.1675 -10.21375 7.085 -11 7 C-4.48275862 0 -4.48275862 0 0 0 Z " fill="#E16A6D" transform="translate(229,243)"/>
<path d="M0 0 C0.33 0 0.66 0 1 0 C1.33 4.62 1.66 9.24 2 14 C-1 11 -1 11 -1.328125 8.80859375 C-1.30234375 8.02613281 -1.2765625 7.24367187 -1.25 6.4375 C-1.23453125 5.65246094 -1.2190625 4.86742187 -1.203125 4.05859375 C-1 2 -1 2 0 0 Z " fill="#7B7A7D" transform="translate(183,145)"/>
<path d="M0 0 C-0.33 0.66 -0.66 1.32 -1 2 C-1.99 2.33 -2.98 2.66 -4 3 C-4 4.65 -4 6.3 -4 8 C-5.5 6.75 -5.5 6.75 -7 5 C-7 3.68 -7 2.36 -7 1 C-3.375 -1.125 -3.375 -1.125 0 0 Z " fill="#757375" transform="translate(106,321)"/>
<path d="M0 0 C0.33 1.32 0.66 2.64 1 4 C-3.455 6.97 -3.455 6.97 -8 10 C-8 9.01 -8 8.02 -8 7 C-5.46815512 4.64276511 -4.52809907 4 -1 4 C-0.67 2.68 -0.34 1.36 0 0 Z " fill="#CF9D3E" transform="translate(268,307)"/>
<path d="M0 0 C2.97 0.33 5.94 0.66 9 1 C6.6870518 3.3129482 5.52095125 3.49580975 2.375 4.125 C1.55773437 4.29257813 0.74046875 4.46015625 -0.1015625 4.6328125 C-1.04128906 4.81457031 -1.04128906 4.81457031 -2 5 C-1.34 4.67 -0.68 4.34 0 4 C0 2.68 0 1.36 0 0 Z " fill="#5D73A7" transform="translate(400,216)"/>
<path d="M0 0 C0.66 0 1.32 0 2 0 C2.33 4.29 2.66 8.58 3 13 C2.34 13 1.68 13 1 13 C0.855625 11.9275 0.71125 10.855 0.5625 9.75 C0.10566824 6.21527402 0.10566824 6.21527402 -0.625 3.6875 C-1 2 -1 2 0 0 Z " fill="#706E70" transform="translate(175,385)"/>
<path d="M0 0 C1.9375 1.125 1.9375 1.125 4 3 C4.75 6.1875 4.75 6.1875 5 9 C4.01 9.495 4.01 9.495 3 10 C0.96564469 6.27034861 0 4.33094958 0 0 Z " fill="#F1DAAB" transform="translate(190,304)"/>
<path d="M0 0 C-1 3 -1 3 -4.3125 4.75 C-7.93653994 5.97848812 -8.6258971 6.10235591 -12 5 C-10.37750059 4.16180842 -8.75191503 3.3295884 -7.125 2.5 C-6.22007812 2.0359375 -5.31515625 1.571875 -4.3828125 1.09375 C-2 0 -2 0 0 0 Z " fill="#F48133" transform="translate(290,266)"/>
<path d="M0 0 C2.31 0 4.62 0 7 0 C4.77174356 2.22825644 3.34238372 2.69239369 0.375 3.625 C-0.44226563 3.88539063 -1.25953125 4.14578125 -2.1015625 4.4140625 C-2.72804688 4.60742188 -3.35453125 4.80078125 -4 5 C-4 4.01 -4 3.02 -4 2 C-2.68 2 -1.36 2 0 2 C0 1.34 0 0.68 0 0 Z " fill="#505F9B" transform="translate(344,238)"/>
<path d="M0 0 C0.33 0 0.66 0 1 0 C1.144375 1.2375 1.28875 2.475 1.4375 3.75 C1.71611841 6.03547854 2.03818221 8.14509238 2.625 10.375 C3 12 3 12 2 14 C1.34 14 0.68 14 0 14 C0 9.38 0 4.76 0 0 Z " fill="#6A686A" transform="translate(181,375)"/>
<path d="M0 0 C1.0326802 2.78823655 1.04509293 3.8677274 0.0625 6.75 C-0.288125 7.4925 -0.63875 8.235 -1 9 C-1.66 8.34 -2.32 7.68 -3 7 C-3.99 7.495 -3.99 7.495 -5 8 C-3.62845496 5.04590299 -2.01136276 2.55991624 0 0 Z " fill="#836A40" transform="translate(291,288)"/>
<path d="M0 0 C0.66 0 1.32 0 2 0 C2 1.65 2 3.3 2 5 C0.35 5.33 -1.3 5.66 -3 6 C-3.33 5.34 -3.66 4.68 -4 4 C-3.34 4 -2.68 4 -2 4 C-1.34 2.68 -0.68 1.36 0 0 Z " fill="#3A383B" transform="translate(121,367)"/>
<path d="M0 0 C0.625 1.8125 0.625 1.8125 1 4 C0.01 5.485 0.01 5.485 -1 7 C-1.66 7 -2.32 7 -3 7 C-3 7.99 -3 8.98 -3 10 C-3.66 10 -4.32 10 -5 10 C-3.84414715 6.08788267 -2.64465038 3.1254959 0 0 Z " fill="#DE757A" transform="translate(200,266)"/>
<path d="M0 0 C1.98 0.99 1.98 0.99 4 2 C4 2.99 4 3.98 4 5 C4.99 5 5.98 5 7 5 C7.33 5.99 7.66 6.98 8 8 C5.5625 7.1875 5.5625 7.1875 3 6 C2.67 5.01 2.34 4.02 2 3 C1.34 3 0.68 3 0 3 C0 2.01 0 1.02 0 0 Z " fill="#83BD97" transform="translate(182,249)"/>
<path d="M0 0 C0.99 0.33 1.98 0.66 3 1 C1.35830472 3.02054804 -0.30911778 5.02043058 -2 7 C-2.33 7 -2.66 7 -3 7 C-3.1875 4.625 -3.1875 4.625 -3 2 C-2.01 1.34 -1.02 0.68 0 0 Z " fill="#535353" transform="translate(232,385)"/>
<path d="M0 0 C1.37562854 1.28965176 2.70766393 2.62689293 4 4 C4 4.66 4 5.32 4 6 C4.66 6 5.32 6 6 6 C5.67 6.99 5.34 7.98 5 9 C4.01 8.67 3.02 8.34 2 8 C1.26953125 6.15234375 1.26953125 6.15234375 0.8125 3.9375 C0.65394531 3.20402344 0.49539062 2.47054688 0.33203125 1.71484375 C0.22246094 1.14894531 0.11289063 0.58304687 0 0 Z " fill="#F0C061" transform="translate(197,313)"/>
<path d="M0 0 C0.93065133 2.60582371 1.14917407 3.64198224 0.0625 6.25 C-0.4634375 7.11625 -0.4634375 7.11625 -1 8 C-1.12375 7.360625 -1.2475 6.72125 -1.375 6.0625 C-1.684375 5.0415625 -1.684375 5.0415625 -2 4 C-2.66 3.67 -3.32 3.34 -4 3 C-2.68 2.01 -1.36 1.02 0 0 Z " fill="#473B31" transform="translate(288,294)"/>
<path d="M0 0 C0.33 0 0.66 0 1 0 C1.06058594 0.62648437 1.12117188 1.25296875 1.18359375 1.8984375 C1.26738281 2.71570313 1.35117188 3.53296875 1.4375 4.375 C1.51871094 5.18710937 1.59992188 5.99921875 1.68359375 6.8359375 C1.89090114 9.04272805 1.89090114 9.04272805 3 11 C1.68 11.33 0.36 11.66 -1 12 C-0.67 8.04 -0.34 4.08 0 0 Z " fill="#717173" transform="translate(70,252)"/>
<path d="M0 0 C1.65 0 3.3 0 5 0 C5.33 1.65 5.66 3.3 6 5 C4.68 5 3.36 5 2 5 C2 4.01 2 3.02 2 2 C1.34 2 0.68 2 0 2 C0 1.34 0 0.68 0 0 Z " fill="#F7B543" transform="translate(201,317)"/>
<path d="M0 0 C0.66 0.33 1.32 0.66 2 1 C1.19152271 2.16945792 0.37810888 3.33550461 -0.4375 4.5 C-0.88996094 5.1496875 -1.34242188 5.799375 -1.80859375 6.46875 C-2.20175781 6.9740625 -2.59492188 7.479375 -3 8 C-3.33 8 -3.66 8 -4 8 C-4 6.02 -4 4.04 -4 2 C-3.01 2.33 -2.02 2.66 -1 3 C-0.67 2.01 -0.34 1.02 0 0 Z " fill="#DDAA44" transform="translate(289,288)"/>
<path d="M0 0 C0.66 0.33 1.32 0.66 2 1 C2.144375 1.639375 2.28875 2.27875 2.4375 2.9375 C2.86165035 5.38210855 2.86165035 5.38210855 6 7 C4.02 7 2.04 7 0 7 C-1.125 2.25 -1.125 2.25 0 0 Z " fill="#A1324D" transform="translate(250,244)"/>
<path d="M0 0 C2.16874252 0.50603992 3.99967627 0.99983813 6 2 C5.67 2.99 5.34 3.98 5 5 C5 4.34 5 3.68 5 3 C1.39007621 3.65585189 1.39007621 3.65585189 -2 5 C-1.34 3.35 -0.68 1.7 0 0 Z " fill="#838284" transform="translate(106,190)"/>
<path d="M0 0 C4.455 0.99 4.455 0.99 9 2 C8.67 2.66 8.34 3.32 8 4 C5.03 3.505 5.03 3.505 2 3 C2 2.34 2 1.68 2 1 C1.34 0.67 0.68 0.34 0 0 Z " fill="#ECD49D" transform="translate(199,321)"/>
<path d="M0 0 C0.66 0.33 1.32 0.66 2 1 C1.67 1.99 1.34 2.98 1 4 C-1.31 4.33 -3.62 4.66 -6 5 C-5.195625 4.360625 -4.39125 3.72125 -3.5625 3.0625 C-1.7249496 1.59396498 -1.7249496 1.59396498 0 0 Z " fill="#392307" transform="translate(262,315)"/>
<path d="M0 0 C0.99 0.33 1.98 0.66 3 1 C2.34 1 1.68 1 1 1 C1 1.66 1 2.32 1 3 C0.34 3 -0.32 3 -1 3 C-1.66 4.65 -2.32 6.3 -3 8 C-3.75 6.25 -3.75 6.25 -4 4 C-2.0625 1.75 -2.0625 1.75 0 0 Z " fill="#F0CC97" transform="translate(215,311)"/>
<path d="M0 0 C0.99 0 1.98 0 3 0 C2.67 1.65 2.34 3.3 2 5 C1.01 5 0.02 5 -1 5 C-1.33 4.01 -1.66 3.02 -2 2 C-1.34 1.34 -0.68 0.68 0 0 Z " fill="#DE2B2F" transform="translate(205,275)"/>
<path d="M0 0 C0.33 1.32 0.66 2.64 1 4 C0.34 4 -0.32 4 -1 4 C-1.33 5.98 -1.66 7.96 -2 10 C-3.10348268 6.68955197 -2.99444068 4.34493684 -2 1 C-1.34 0.67 -0.68 0.34 0 0 Z " fill="#EEB24A" transform="translate(297,272)"/>
<path d="M0 0 C0 2 0 2 -1.6875 3.75 C-4 5 -4 5 -6.75 4.1875 C-7.4925 3.795625 -8.235 3.40375 -9 3 C-9 2.67 -9 2.34 -9 2 C-2.25 0 -2.25 0 0 0 Z " fill="#636BA0" transform="translate(260,243)"/>
<path d="M0 0 C-4.44 2.96 -4.44 2.96 -7 4 C-7.99 3.67 -8.98 3.34 -10 3 C-9.34 3 -8.68 3 -8 3 C-8 2.34 -8 1.68 -8 1 C-5.29120665 -0.35439668 -2.99066732 -0.06501451 0 0 Z " fill="#5A719D" transform="translate(361,234)"/>
<path d="M0 0 C3.3 0 6.6 0 10 0 C10.33 0.99 10.66 1.98 11 3 C10.34 3.66 9.68 4.32 9 5 C8.67 4.01 8.34 3.02 8 2 C5.36 1.67 2.72 1.34 0 1 C0 0.67 0 0.34 0 0 Z " fill="#A2A0A2" transform="translate(94,218)"/>
</svg>
